<svg xmlns="http://www.w3.org/2000/svg" xmlns:xlink="http://www.w3.org/1999/xlink" width="710" height="685.652" viewBox="0 0 710 685.652">
  <defs>
    <linearGradient id="linear-gradient" x1="0.5" x2="0.5" y2="1" gradientUnits="objectBoundingBox">
      <stop offset="0" stop-color="#23b5d3"/>
      <stop offset="1" stop-color="#1d65ad"/>
    </linearGradient>
  </defs>
  <g id="Business_deal-pana" data-name="Business deal-pana" transform="translate(-31.076 -41.97)">
    <g id="freepik--background-complete--inject-44" transform="translate(31.076 41.97)">
      <path id="Path_10" data-name="Path 10" d="M58.338,303.432s13.938-4.646,20.628,27.6S86.709,381,86.709,381s2.2,6.953,7.31,4.2,13.69-12.219,20.132-8.347,6.783,12.652,2.2,24.035-13.814,36.733-14.619,38.963-.418,5.993,3.376,4.646,27.736-16.756,34.379-4.956-11.3,41.426-13.21,44.693-1.549,4.971-.186,6.3,9-4.646,16-8.719,15.811-7.666,19.079-.527-1.765,31.654-35.4,64.531l-16.586,14.232-20.8-6.953c-43.64-17.577-57.64-38.328-57.3-46.165s9.818-7.929,17.84-6.783,17.3,3.748,18.119,1.967.434-3.453-2.586-5.761S33.483,473.533,35.2,460.091s29.672-8.316,33.667-8.533,2.942-3.841,1.347-5.606-19.7-21.681-28.278-30.508-11.692-16.834-7.124-23.059,15.951-.526,21.681.077,5.157-6.675,5.157-6.675-5.838-16.833-11.94-49.122,8.92-33.342,8.92-33.342" transform="translate(-31.076 101.347)" fill="#f5f5f5"/>
      <path id="Path_11" data-name="Path 11" d="M97.517,545.2c-4.646-23.709-11.15-56.4-18.583-92.5S64.9,383.972,60.21,360.279c-2.323-11.816-4.228-21.387-5.529-28.046-.65-3.283-1.161-5.854-1.549-7.619-.186-.852-.31-1.549-.418-1.982s-.155-.681-.155-.681a4.58,4.58,0,0,0,.077.7c.077.449.2,1.13.341,1.982.325,1.781.79,4.367,1.378,7.65,1.208,6.644,3.02,16.245,5.312,28.092,4.553,23.709,11.15,56.4,18.583,92.484s14.062,68.774,18.754,92.453" transform="translate(-19.289 111.634)" fill="#e0e0e0"/>
      <path id="Path_12" data-name="Path 12" d="M84.2,359.61a7.3,7.3,0,0,0-.929,1.27c-.558.852-1.332,2.106-2.276,3.655-1.889,3.1-4.367,7.464-7.015,12.312L67.26,389.313l-2.013,3.779a7.248,7.248,0,0,0-.7,1.409,5.53,5.53,0,0,0,.945-1.27c.558-.836,1.347-2.091,2.261-3.655,1.858-3.1,4.274-7.511,6.922-12.389L81.492,364.8c.821-1.471,1.549-2.726,2.075-3.763a6.376,6.376,0,0,0,.635-1.425Z" transform="translate(-12.711 132.295)" fill="#e0e0e0"/>
      <path id="Path_13" data-name="Path 13" d="M77.2,390.533c.108-.17-8.657-5.683-19.544-12.389S37.819,366.281,37.71,366.451s8.641,5.7,19.544,12.389S77.092,390.78,77.2,390.533Z" transform="translate(-27.437 136.046)" fill="#e0e0e0"/>
      <path id="Path_14" data-name="Path 14" d="M85.948,421.84a6.52,6.52,0,0,0-1.549-.511l-4.228-1.146c-3.562-.976-8.486-2.338-13.938-4.042s-10.205-3.361-13.674-4.646l-4.011-1.44A7.108,7.108,0,0,0,47,409.59a6.656,6.656,0,0,0,1.44.728c.945.434,2.323,1.022,4.042,1.7,3.453,1.378,8.254,3.1,13.659,4.847s10.36,2.973,13.938,3.825c1.812.418,3.268.728,4.29.914a6.789,6.789,0,0,0,1.58.232Z" transform="translate(-22.34 159.716)" fill="#e0e0e0"/>
      <path id="Path_15" data-name="Path 15" d="M98.822,400a6.071,6.071,0,0,0-1.161.945c-.712.65-1.719,1.549-2.958,2.772-2.478,2.369-5.854,5.668-9.555,9.292s-6.953,7.124-9.416,9.555c-1.177,1.223-2.137,2.23-2.788,2.942A5.576,5.576,0,0,0,72,426.652a5.853,5.853,0,0,0,1.161-.945c.7-.635,1.719-1.549,2.942-2.772,2.478-2.354,5.869-5.668,9.571-9.292s7.015-7.046,9.4-9.509c1.192-1.223,2.137-2.23,2.788-2.942a6.194,6.194,0,0,0,.96-1.192Z" transform="translate(-8.624 154.454)" fill="#e0e0e0"/>
      <path id="Path_16" data-name="Path 16" d="M113.529,430.3a9.168,9.168,0,0,0-1.549,1.223l-3.794,3.531c-3.19,3.02-7.557,7.217-12.389,11.893s-9.106,8.92-12.188,12.033L79.97,462.7a10.141,10.141,0,0,0-1.27,1.425,9.451,9.451,0,0,0,1.549-1.224l3.81-3.546c3.1-3,7.542-7.2,12.389-11.878s9.044-8.92,12.141-12.033l3.639-3.717a10.537,10.537,0,0,0,1.3-1.425Z" transform="translate(-4.948 171.077)" fill="#e0e0e0"/>
      <path id="Path_17" data-name="Path 17" d="M96.545,457.439a10.848,10.848,0,0,0-1.92-.7l-5.312-1.58c-4.476-1.394-10.67-3.345-17.438-5.683s-12.838-4.646-17.236-6.194l-5.2-2.06a11.317,11.317,0,0,0-1.936-.635,11.1,11.1,0,0,0,1.827.914c1.192.542,2.942,1.285,5.126,2.184,4.336,1.8,10.391,4.135,17.19,6.473s12.993,4.212,17.515,5.467c2.276.635,4.1,1.115,5.389,1.425A11.725,11.725,0,0,0,96.545,457.439Z" transform="translate(-22.066 176.723)" fill="#e0e0e0"/>
      <rect id="Rectangle_60" data-name="Rectangle 60" width="144.998" height="210.164" transform="translate(516.658 33.574)" fill="#e0e0e0"/>
      <rect id="Rectangle_61" data-name="Rectangle 61" width="144.998" height="210.164" transform="translate(509.395 33.574)" fill="#f5f5f5"/>
      <rect id="Rectangle_62" data-name="Rectangle 62" width="108.961" height="164.634" transform="translate(527.421 56.339)" fill="#fff"/>
      <path id="Path_18" data-name="Path 18" d="M480.684,243.187V231.015c0-7.9,0-19.389-.093-33.915,0-29.037-.108-70.137-.186-118.547l.372.356H371.815l.387-.387V243.156l-.31-.31L451.2,243l21.913.077h.124l-21.836.077-79.506.17h-.325v-.31c0-45.266,0-102.534-.077-164.634v-.4H481.21v.372c-.077,48.5-.139,89.7-.17,118.78,0,14.5-.077,25.97-.108,33.837v11.259A2.073,2.073,0,0,1,480.684,243.187Z" transform="translate(155.683 -22.214)" fill="#e0e0e0"/>
      <path id="Path_19" data-name="Path 19" d="M460.9,63.65a24.146,24.146,0,0,1-2.586,3.748c-1.672,2.261-4.073,5.327-6.8,8.626s-5.281,6.195-7.17,8.332a25.2,25.2,0,0,1-3.19,3.268A27.873,27.873,0,0,1,443.922,84l6.984-8.471,6.969-8.471a26.731,26.731,0,0,1,3.02-3.407Z" transform="translate(193.901 -30.076)" fill="#e0e0e0"/>
      <path id="Path_20" data-name="Path 20" d="M442.37,184.32a134.963,134.963,0,0,0,19,23.756" transform="translate(194.57 36.127)" fill="#fff"/>
      <path id="Path_21" data-name="Path 21" d="M461.372,208.076a20.553,20.553,0,0,1-3.314-3,103.108,103.108,0,0,1-7.17-8.084,107.226,107.226,0,0,1-6.318-8.781,21.219,21.219,0,0,1-2.2-3.887,30.169,30.169,0,0,1,2.664,3.577c1.549,2.246,3.856,5.312,6.473,8.595s5.126,6.194,6.953,8.192a31.614,31.614,0,0,1,2.911,3.392Z" transform="translate(194.57 36.127)" fill="#e0e0e0"/>
      <path id="Path_22" data-name="Path 22" d="M360,207.551l18.986-23.431" transform="translate(149.38 36.017)" fill="#fff"/>
      <path id="Path_23" data-name="Path 23" d="M378.986,184.12a139.839,139.839,0,0,1-9.183,11.955,145.47,145.47,0,0,1-9.8,11.475,145.414,145.414,0,0,1,9.183-11.971A146.811,146.811,0,0,1,378.986,184.12Z" transform="translate(149.38 36.017)" fill="#e0e0e0"/>
      <path id="Path_24" data-name="Path 24" d="M360,63.65a131.138,131.138,0,0,1,9.292,11.011,132.222,132.222,0,0,1,8.595,11.522,131.29,131.29,0,0,1-9.214-11.026A131.946,131.946,0,0,1,360,63.65Z" transform="translate(149.38 -30.076)" fill="#e0e0e0"/>
      <rect id="Rectangle_63" data-name="Rectangle 63" width="36.486" height="103.588" transform="translate(565.951 89.758)" fill="#e0e0e0"/>
      <path id="Path_25" data-name="Path 25" d="M225.46,41.97V157.761H59.138L53.16,42.775Z" transform="translate(-18.96 -41.97)" fill="#e0e0e0"/>
      <rect id="Rectangle_64" data-name="Rectangle 64" width="114.738" height="166.322" transform="translate(34.2 115.543) rotate(-90)" fill="#fff"/>
      <path id="Path_26" data-name="Path 26" d="M220.536,158.286H52.65V42H220.536ZM54.214,156.738H218.895V43.549H54.214Z" transform="translate(-19.24 -41.954)" fill="#e0e0e0"/>
      <rect id="Rectangle_65" data-name="Rectangle 65" width="130.286" height="86.227" transform="translate(52.21 15.068)" fill="#fff"/>
      <path id="Path_27" data-name="Path 27" d="M195.306,51.837h-9.648l-26.853.108-93.785.186.325-.294v86.212h0l-.4-.418,130.286.093-.325.325c0-26.249.124-47.76.17-62.75,0-7.48,0-13.334.077-17.345v-.046c0,4,0,9.818.077,17.267,0,15.037.093,36.625.17,62.952v.325H64.37v-.4h0V51.45h.387l94.032.186,26.76.108h8.889Z" transform="translate(-12.81 -36.769)" fill="#e0e0e0"/>
      <path id="Path_28" data-name="Path 28" d="M53.15,42.28a14.077,14.077,0,0,1,2.865,1.858c1.7,1.223,4.026,2.973,6.52,4.971s4.646,3.9,6.195,5.312a13.844,13.844,0,0,1,2.385,2.447c-.155.17-4.166-3.1-9.152-7.124A91.68,91.68,0,0,1,53.15,42.28Z" transform="translate(-18.966 -41.8)" fill="#e0e0e0"/>
      <path id="Path_29" data-name="Path 29" d="M166.941,42.49a79.657,79.657,0,0,1-8.75,7.449,82.851,82.851,0,0,1-9.292,6.814,80.714,80.714,0,0,1,8.75-7.464,81.425,81.425,0,0,1,9.292-6.8Z" transform="translate(33.565 -41.685)" fill="#e0e0e0"/>
      <path id="Path_30" data-name="Path 30" d="M167.053,121.927,148.47,106.89" transform="translate(33.329 -6.353)" fill="#fff"/>
      <path id="Path_31" data-name="Path 31" d="M148.49,106.89a89.044,89.044,0,0,1,9.539,7.2,87.3,87.3,0,0,1,9.013,7.836,87.281,87.281,0,0,1-9.539-7.2,89.574,89.574,0,0,1-9.013-7.836Z" transform="translate(33.34 -6.353)" fill="#e0e0e0"/>
      <path id="Path_32" data-name="Path 32" d="M53.15,121.573a82.216,82.216,0,0,1,8.672-7.371,78.517,78.517,0,0,1,9.168-6.721,78.98,78.98,0,0,1-8.657,7.371A76.427,76.427,0,0,1,53.15,121.573Z" transform="translate(-18.966 -6.03)" fill="#e0e0e0"/>
      <rect id="Rectangle_66" data-name="Rectangle 66" width="28.866" height="81.984" transform="translate(78.661 70.803) rotate(-90)" fill="#e0e0e0"/>
      <path id="Path_33" data-name="Path 33" d="M450.693,325.922a58.43,58.43,0,1,1,2.122-82.449,58.43,58.43,0,0,1-2.122,82.449Z" transform="translate(144.96 58.555)" fill="#ebebeb"/>
      <path id="Path_34" data-name="Path 34" d="M436.212,310.923a44.538,44.538,0,1,1,1.549-62.89A44.538,44.538,0,0,1,436.212,310.923Z" transform="translate(149.887 63.472)" fill="#f5f5f5"/>
      <path id="Path_35" data-name="Path 35" d="M432.609,310.486c-.2-.186,1.084-1.672,3.1-4.537a46.863,46.863,0,0,0,6.38-13.117,46.055,46.055,0,0,0,1.812-9.849,43.845,43.845,0,0,0-.743-11.367,40.6,40.6,0,0,0-1.549-5.978,43.082,43.082,0,0,0-6.071-11.6,47.051,47.051,0,0,0-4.476-5.2,48.642,48.642,0,0,0-5.25-4.445,44.457,44.457,0,0,0-5.7-3.469,41.685,41.685,0,0,0-5.947-2.478,41.037,41.037,0,0,0-5.993-1.549,44.491,44.491,0,0,0-11.429-.589,45.759,45.759,0,0,0-9.834,1.9,47.356,47.356,0,0,0-13.055,6.5c-2.849,2-4.305,3.3-4.507,3.1s1.007-1.765,3.686-4.166a41.41,41.41,0,0,1,13.1-7.743,44.712,44.712,0,0,1,10.329-2.447,45.313,45.313,0,0,1,12.219.31,43.068,43.068,0,0,1,6.473,1.549,42.173,42.173,0,0,1,6.442,2.6,45.153,45.153,0,0,1,6.195,3.686,51.664,51.664,0,0,1,5.683,4.785,48.4,48.4,0,0,1,4.816,5.622,45.447,45.447,0,0,1,3.763,6.194,44.455,44.455,0,0,1,2.648,6.411,41.807,41.807,0,0,1,1.549,6.458,45.625,45.625,0,0,1,.418,12.234,45.136,45.136,0,0,1-2.338,10.345,41.627,41.627,0,0,1-7.619,13.179C434.359,309.463,432.748,310.625,432.609,310.486Z" transform="translate(154.496 62.934)" fill="#e0e0e0"/>
      <path id="Path_36" data-name="Path 36" d="M384.143,292.943l-5.482,5.436-4.832-4.956,5.389-5.265c-4.476-5.2-7.542-11.413-8.068-16.214l8.7-3.175a28,28,0,0,0,5.869,13.055l8.27-8.084c-4.026-6.8-8.192-14.743-1.1-21.681,5.265-5.126,13.488-5.7,22.021,1.254l5.513-5.374,4.832,4.971-5.4,5.265a31.423,31.423,0,0,1,6.814,13.086l-8.517,3.484a28.789,28.789,0,0,0-4.816-10.113l-8.517,8.177c4.088,6.768,8.146,14.6,1.161,21.417C400.822,299.246,392.676,299.834,384.143,292.943Zm17.035-26.327,7.046-6.876c-3.1-2.044-5.622-1.673-7.248,0s-1.192,4.042.248,6.876Zm-3.624,20.132c1.734-1.688,1.27-4.042,0-6.907l-6.845,6.675c2.942,2.013,5.3,1.781,6.891.232Z" transform="translate(155.497 71.03)" fill="#e0e0e0"/>
      <path id="Path_37" data-name="Path 37" d="M310.134,349.585a61.357,61.357,0,1,1-78-37.755,61.357,61.357,0,0,1,78,37.755Z" transform="translate(56.571 104.208)" fill="#ebebeb"/>
      <path id="Path_38" data-name="Path 38" d="M291.206,349.184a46.753,46.753,0,1,1-59.452-28.773A46.753,46.753,0,0,1,291.206,349.184Z" transform="translate(61.763 109.364)" fill="#f5f5f5"/>
      <path id="Path_39" data-name="Path 39" d="M291.1,348.44c-.263.108-1.131-1.766-3-4.909a50.036,50.036,0,0,0-9.787-11.77,48.208,48.208,0,0,0-8.641-6.009,46.581,46.581,0,0,0-11.212-4.274,42.94,42.94,0,0,0-6.411-1.069,45.468,45.468,0,0,0-13.705.774,51.114,51.114,0,0,0-6.922,2.029,50.5,50.5,0,0,0-6.52,3.1,43.8,43.8,0,0,0-5.792,3.949,42.6,42.6,0,0,0-4.956,4.646,44.172,44.172,0,0,0-4.057,5.08,46.459,46.459,0,0,0-5.513,10.67,48.627,48.627,0,0,0-2.431,10.221,49.557,49.557,0,0,0,.558,15.3c.7,3.593,1.3,5.56,1.038,5.668s-1.254-1.734-2.385-5.327a43.361,43.361,0,0,1-1.734-15.966,46.629,46.629,0,0,1,7.743-22.5,44.414,44.414,0,0,1,4.274-5.529,45.176,45.176,0,0,1,5.265-5.033,46.726,46.726,0,0,1,6.195-4.305,49.56,49.56,0,0,1,7.015-3.361,50.736,50.736,0,0,1,7.48-2.184,48.114,48.114,0,0,1,7.5-.929,45.546,45.546,0,0,1,7.294.232,46.32,46.32,0,0,1,6.86,1.27,48.86,48.86,0,0,1,11.878,4.894,47.9,47.9,0,0,1,8.889,6.737,43.159,43.159,0,0,1,9.292,12.978C290.887,346.319,291.305,348.363,291.1,348.44Z" transform="translate(61.323 108.729)" fill="#e0e0e0"/>
      <path id="Path_40" data-name="Path 40" d="M252.4,383.934l2.772,7.65-6.829,2.478-2.71-7.449c-6.907,2.044-14.17,2.276-19,.7l.743-9.694a29.5,29.5,0,0,0,15.022,0l-4.15-11.429c-8.254.914-17.654,1.456-21.2-8.316-2.617-7.248.387-15.378,10.747-20.519l-2.757-7.588,6.829-2.493,2.71,7.464a32.661,32.661,0,0,1,15.378-.867l-.356,9.648a30.042,30.042,0,0,0-11.754.232l4.212,11.63c8.239-.976,17.5-1.471,20.984,8.161C265.627,370.693,262.669,378.731,252.4,383.934Zm-17.794-27.751-3.531-9.694c-3.314,2.122-4.026,4.646-3.221,6.891s3.391,2.9,6.752,2.8ZM252.34,368.4c-.867-2.4-3.314-2.973-6.628-2.927l3.422,9.431c3.144-2,3.949-4.321,3.206-6.5Z" transform="translate(70.462 114.553)" fill="#e0e0e0"/>
      <path id="Path_41" data-name="Path 41" d="M153.842,255.109a51.492,51.492,0,1,1-52.127-50.717,51.492,51.492,0,0,1,52.127,50.717Z" transform="translate(-20.22 47.136)" fill="#ebebeb"/>
      <path id="Path_42" data-name="Path 42" d="M137.253,250.957a39.18,39.18,0,1,1-11.831-27.6A39.242,39.242,0,0,1,137.253,250.957Z" transform="translate(-15.881 51.443)" fill="#f5f5f5"/>
      <path id="Path_43" data-name="Path 43" d="M137.417,250.246c-.248,0-.434-1.7-1.1-4.646a41.565,41.565,0,0,0-4.646-11.971,38.917,38.917,0,0,0-13.117-13.5,36.639,36.639,0,0,0-4.832-2.555,35.153,35.153,0,0,0-5.343-1.889,36.981,36.981,0,0,0-5.776-1.115,41.364,41.364,0,0,0-6.055-.217,42.461,42.461,0,0,0-6.009.743,39.566,39.566,0,0,0-5.652,1.549,34.954,34.954,0,0,0-5.172,2.369,36.3,36.3,0,0,0-4.646,2.958,38.87,38.87,0,0,0-7.2,7.031,39.925,39.925,0,0,0-4.646,7.511A41.813,41.813,0,0,0,59.614,248.9c-.4,3.1-.434,4.785-.681,4.785s-.542-1.7-.48-4.878a36.207,36.207,0,0,1,2.818-13.1,40.078,40.078,0,0,1,4.646-8.146,40.977,40.977,0,0,1,7.511-7.743,38.621,38.621,0,0,1,4.863-3.268,39.924,39.924,0,0,1,11.63-4.4,44.491,44.491,0,0,1,6.489-.821,45.569,45.569,0,0,1,6.52.248,40.649,40.649,0,0,1,6.195,1.254,36.8,36.8,0,0,1,5.745,2.122A37.837,37.837,0,0,1,120,217.771a40.263,40.263,0,0,1,8.161,7.046,39.475,39.475,0,0,1,5.3,7.743,36.067,36.067,0,0,1,3.964,12.807C137.8,248.5,137.588,250.246,137.417,250.246Z" transform="translate(-16.061 50.93)" fill="#e0e0e0"/>
      <path id="Path_44" data-name="Path 44" d="M94.757,270.536l.186,6.829-6.1.17-.186-6.659c-6.04-.2-11.893-1.936-15.316-4.46l3.1-7.542a24.639,24.639,0,0,0,11.955,4.011l-.263-10.19c-6.829-1.456-14.449-3.515-14.681-12.234-.17-6.473,4.367-12.157,13.938-13.5l-.186-6.783,6.1-.155.186,6.644a27.7,27.7,0,0,1,12.482,3.391l-2.849,7.588a25.166,25.166,0,0,0-9.416-2.927l.279,10.376c6.814,1.409,14.309,3.469,14.542,12.064C108.788,263.505,104.3,269.111,94.757,270.536Zm-6.829-26.807-.232-8.657c-3.221.805-4.445,2.617-4.4,4.646s1.9,3.237,4.63,4.011Zm10.84,14.418c0-2.137-1.858-3.237-4.507-4.088l.232,8.425c3.1-.681,4.383-2.385,4.321-4.336Z" transform="translate(-7.889 55.713)" fill="#e0e0e0"/>
      <path id="Path_45" data-name="Path 45" d="M292.872,117.734a45.5,45.5,0,0,0,5.73-22.161A44.91,44.91,0,0,0,253.94,50.4,44.167,44.167,0,0,0,242,52.026a45.328,45.328,0,0,1,0,87.11,44.229,44.229,0,0,0,35.618-5.234l21,8.115Z" transform="translate(84.642 -37.345)" fill="#ebebeb"/>
    </g>
    <g id="freepik--Floor--inject-44" transform="translate(41.226 702.985)">
      <path id="Path_46" data-name="Path 46" d="M695.393,469.228c0,.217-147.259.4-328.866.4s-328.9-.186-328.9-.4,147.228-.418,328.9-.418S695.393,469,695.393,469.228Z" transform="translate(-37.63 -468.81)" fill="#263238"/>
    </g>
    <g id="freepik--Characters--inject-44" transform="translate(156.335 97.747)">
      <path id="Path_47" data-name="Path 47" d="M162.048,437l1.254,38.53,9.787,30.2a3.949,3.949,0,0,1-2.788,5.049h0a3.934,3.934,0,0,1-3.531-.821c-6.195-5.312-28.851-24.948-28.789-27.767,0-3.283-4.042-40.574-4.042-40.574Z" transform="translate(-99.901 118.976)" fill="#071013"/>
      <path id="Path_48" data-name="Path 48" d="M168.941,495.659,136.42,464.47l.093,1.549a5.947,5.947,0,0,0,1.626,3.779c2.6,2.726,9.958,10.128,27.116,24.964a3.934,3.934,0,0,0,3.639.821Z" transform="translate(-98.54 134.047)" fill="#e0e0e0"/>
      <path id="Path_49" data-name="Path 49" d="M142.324,456.256a2.385,2.385,0,0,1,.821,3.1,2.276,2.276,0,0,1-3.1.852,2.509,2.509,0,0,1-.867-3.268,2.385,2.385,0,0,1,3.268-.526" transform="translate(-97.182 129.392)" fill="#fff"/>
      <path id="Path_50" data-name="Path 50" d="M151.146,475.748c.217.093.976-1.982,3.206-3.19a12.157,12.157,0,0,1,4.383-1.1c0-.093-.465-.356-1.378-.434a6.1,6.1,0,0,0-3.422.79,6.194,6.194,0,0,0-2.447,2.509C151.069,475.144,151.054,475.717,151.146,475.748Z" transform="translate(-90.487 137.636)" fill="#263238"/>
      <path id="Path_51" data-name="Path 51" d="M153.095,478.4a28.915,28.915,0,0,1,3.314-1.858,30.788,30.788,0,0,1,3.732-.681,4.321,4.321,0,0,0-4.026-.108C153.885,476.538,152.955,478.3,153.095,478.4Z" transform="translate(-89.4 139.99)" fill="#263238"/>
      <path id="Path_52" data-name="Path 52" d="M147.59,471.753a41.557,41.557,0,0,1,4.94-3.19,39.67,39.67,0,0,1,5.637-1.657,10.84,10.84,0,0,0-10.577,4.847Z" transform="translate(-92.412 135.328)" fill="#263238"/>
      <path id="Path_53" data-name="Path 53" d="M146.71,463.168c.124.217,2.2-.79,4.956-1.038s5,.279,5.064,0a7.62,7.62,0,0,0-5.141-.9,7.743,7.743,0,0,0-4.878,1.936Z" transform="translate(-92.895 132.206)" fill="#263238"/>
      <path id="Path_54" data-name="Path 54" d="M146.292,455.871a19.36,19.36,0,0,1,5.126-1.223,18.819,18.819,0,0,1,5.172,1.007c0-.093-.387-.542-1.3-1.007a8.423,8.423,0,0,0-3.887-.836,8.564,8.564,0,0,0-3.856.991C146.664,455.313,146.23,455.793,146.292,455.871Z" transform="translate(-93.128 128.198)" fill="#263238"/>
      <path id="Path_55" data-name="Path 55" d="M151.5,455.634a3.391,3.391,0,0,0,0-1.549,10.314,10.314,0,0,0-1.363-3.748,4.646,4.646,0,0,0-2.044-2.029,1.549,1.549,0,0,0-1.765.449,2.509,2.509,0,0,0-.511,1.781,5.575,5.575,0,0,0,5.172,4.878,6.473,6.473,0,0,0,6.194-3.732,2.261,2.261,0,0,0,0-1.874,1.549,1.549,0,0,0-1.673-.728,5.467,5.467,0,0,0-2.462,1.456,11.211,11.211,0,0,0-2.462,3.1,3.406,3.406,0,0,0-.511,1.363,18.165,18.165,0,0,1,3.361-4.042,5.281,5.281,0,0,1,2.184-1.223.836.836,0,0,1,.914.4,1.549,1.549,0,0,1-.077,1.223,5.807,5.807,0,0,1-5.389,3.19,4.863,4.863,0,0,1-4.445-4.088,1.812,1.812,0,0,1,.31-1.254.836.836,0,0,1,.96-.263,4.042,4.042,0,0,1,1.765,1.688A15.038,15.038,0,0,1,151.5,455.634Z" transform="translate(-93.393 125.12)" fill="#263238"/>
      <path id="Path_56" data-name="Path 56" d="M210.888,441.028l-2,28.82s28.634,11.708,28.773,17.035l-56.014-1.858,1.27-45.034Z" transform="translate(-73.726 120.617)" fill="#071013"/>
      <path id="Path_57" data-name="Path 57" d="M188.728,457.33a2.307,2.307,0,0,0-1.719,2.586,2.215,2.215,0,0,0,2.524,1.688,2.416,2.416,0,0,0,1.75-2.726,2.276,2.276,0,0,0-2.8-1.456" transform="translate(-70.801 130.13)" fill="#e0e0e0"/>
      <path id="Path_58" data-name="Path 58" d="M181.65,470.7l.31-4.537,53.6,3.484s2.447,1.177,2.106,2.911Z" transform="translate(-73.726 134.974)" fill="#e0e0e0"/>
      <path id="Path_59" data-name="Path 59" d="M201.684,459.2c0,.263-1.394.341-2.772,1.177s-2.122,1.967-2.369,1.843.2-1.672,1.889-2.664S201.746,459.031,201.684,459.2Z" transform="translate(-65.591 131.015)" fill="#263238"/>
      <path id="Path_60" data-name="Path 60" d="M204.944,460.843c0,.263-1.146.7-2.122,1.827s-1.27,2.338-1.549,2.307-.387-1.549.836-2.942S204.944,460.58,204.944,460.843Z" transform="translate(-63.059 131.99)" fill="#263238"/>
      <path id="Path_61" data-name="Path 61" d="M205.684,467.058c-.248,0-.588-1.316.17-2.8s2.044-2.029,2.153-1.8-.7,1.007-1.3,2.23S205.963,467.042,205.684,467.058Z" transform="translate(-60.702 132.915)" fill="#263238"/>
      <path id="Path_62" data-name="Path 62" d="M201.727,455.209c-.124.248-1.363-.17-2.911-.108s-2.772.5-2.911.248,1.053-1.177,2.88-1.208S201.866,455.008,201.727,455.209Z" transform="translate(-65.912 128.379)" fill="#263238"/>
      <path id="Path_63" data-name="Path 63" d="M202.84,452.749a5.1,5.1,0,0,1-2.865-.108,12.216,12.216,0,0,1-2.911-.991,12.9,12.9,0,0,1-1.549-.914,3.1,3.1,0,0,1-.821-.681,1.177,1.177,0,0,1-.077-1.456,1.549,1.549,0,0,1,1.223-.589,3.917,3.917,0,0,1,1.038.17,10.842,10.842,0,0,1,1.734.666,9.773,9.773,0,0,1,2.524,1.781c1.254,1.254,1.673,2.276,1.549,2.338s-.743-.79-2.029-1.827a10.687,10.687,0,0,0-2.447-1.549,10.152,10.152,0,0,0-1.549-.542c-.589-.186-1.1-.2-1.254,0s-.077.139,0,.31a3.1,3.1,0,0,0,.6.511,16.62,16.62,0,0,0,1.456.883,14.757,14.757,0,0,0,2.679,1.13A22.445,22.445,0,0,1,202.84,452.749Z" transform="translate(-66.731 125.017)" fill="#263238"/>
      <path id="Path_64" data-name="Path 64" d="M199.845,454.447a4.646,4.646,0,0,1-.65-2.741,9.478,9.478,0,0,1,1.254-4.739,2.307,2.307,0,0,1,1.843-1.347,1.316,1.316,0,0,1,1.146.821,3.576,3.576,0,0,1,.248,1.038,5.9,5.9,0,0,1,0,1.889,6.318,6.318,0,0,1-1.285,2.849c-1.146,1.425-2.292,1.719-2.323,1.549s.883-.635,1.781-2a6.612,6.612,0,0,0,.976-2.6,6.351,6.351,0,0,0,0-1.626c-.077-.6-.279-1.084-.511-1.038a1.945,1.945,0,0,0-1.007.9,8.888,8.888,0,0,0-.743,1.549,9.882,9.882,0,0,0-.635,2.788C199.737,453.379,200,454.416,199.845,454.447Z" transform="translate(-64.108 123.705)" fill="#263238"/>
      <path id="Path_65" data-name="Path 65" d="M126.17,260.762l8.27,309.787,44.2-1.316L189.168,250.2Z" transform="translate(-104.164 16.493)" fill="#263238"/>
      <path id="Path_66" data-name="Path 66" d="M201.653,249.86s32.8,131.323,33.806,153.716S228.445,566,228.445,566H185.176L188.8,406.488,156,271.665l7.944-21.108Z" transform="translate(-87.798 16.307)" fill="#263238"/>
      <path id="Path_67" data-name="Path 67" d="M171.251,260.27a1.9,1.9,0,0,1,0,.434v1.223c0,1.146-.093,2.71-.17,4.723-.186,4.15-.465,10.066-.79,17.345-.759,14.7-1.8,34.906-2.942,57.3s-2.354,42.51-3.1,57.206c-.434,7.279-.805,13.179-1.053,17.345-.139,2-.248,3.577-.325,4.646a10.517,10.517,0,0,1-.108,1.223,1.764,1.764,0,0,1,0,.418,1.705,1.705,0,0,1,0-.418v-1.223c0-1.146.108-2.726.186-4.723.186-4.15.465-10.066.79-17.345.759-14.7,1.8-34.906,2.927-57.3s2.354-42.51,3.175-57.206c.434-7.279.79-13.179,1.053-17.329.139-2,.248-3.577.325-4.723a10.852,10.852,0,0,1,.108-1.223A1.115,1.115,0,0,1,171.251,260.27Z" transform="translate(-84.094 22.018)" fill="#455a64"/>
      <path id="Path_68" data-name="Path 68" d="M183.369,142.557s16.059,79.661,16.292,102.1,8.115,66.3,8.115,66.3H138.3l-1.549-121.366L131.8,153.4l10.438-14.9Z" transform="translate(-101.075 -44.788)" fill="#f5f5f5"/>
      <path id="Path_69" data-name="Path 69" d="M165.65,142.63s16.586,4.878,20.968,11.011c3.453,4.847,8.13,96.464,8.13,96.464l7.062,80.714-6.953-.65-9.818-30.214Z" transform="translate(-82.504 -42.522)" fill="#23b5d3"/>
      <path id="Path_70" data-name="Path 70" d="M179.19,149.74l46.83,42.974,57.624-18.676,11.491,24.205-61.5,27.875c-8.781,3.748-14.294,1.688-20.4-3.206l-32.258-25.831Z" transform="translate(-75.076 -38.622)" fill="#23b5d3"/>
      <path id="Path_71" data-name="Path 71" d="M240.566,170.643a1.285,1.285,0,0,1-.527,1.719,1.254,1.254,0,0,1-1.7-.527,1.239,1.239,0,0,1,.511-1.7A1.285,1.285,0,0,1,240.566,170.643Z" transform="translate(-42.713 -27.515)" fill="#263238"/>
      <path id="Path_72" data-name="Path 72" d="M239.463,172.541a1.068,1.068,0,0,1-.387,0,1.3,1.3,0,0,1-.774-.635,1.363,1.363,0,0,1-.093-.991,1.332,1.332,0,0,1,1.626-.867,1.316,1.316,0,0,1,.774.635,1.3,1.3,0,0,1,.093.991,1.27,1.27,0,0,1-.635.774,1.208,1.208,0,0,1-.6.093Zm0-2.524a1.3,1.3,0,0,0-.573.139,1.254,1.254,0,0,0-.589.728,1.22,1.22,0,0,0,1.75,1.425,1.177,1.177,0,0,0,.588-.712,1.255,1.255,0,0,0-.093-.945,1.223,1.223,0,0,0-1.084-.65Z" transform="translate(-42.726 -27.508)" fill="#263238"/>
      <path id="Path_73" data-name="Path 73" d="M243.686,169.907a1.285,1.285,0,0,1-.527,1.719,1.254,1.254,0,0,1-1.7-.526,1.239,1.239,0,0,1,.511-1.7,1.254,1.254,0,0,1,1.719.511Z" transform="translate(-41.002 -27.925)" fill="#263238"/>
      <path id="Path_74" data-name="Path 74" d="M242.584,171.8a1.068,1.068,0,0,1-.387,0,1.3,1.3,0,0,1-.774-.635,1.306,1.306,0,0,1,2.307-1.223,1.3,1.3,0,0,1,.093.991,1.316,1.316,0,0,1-.635.774,1.393,1.393,0,0,1-.6.093Zm0-2.54a1.331,1.331,0,0,0-.573.155,1.223,1.223,0,0,0-.5,1.657,1.161,1.161,0,0,0,.728.588,1.223,1.223,0,1,0,.7-2.338,1.316,1.316,0,0,0-.372-.062Z" transform="translate(-41.015 -27.916)" fill="#263238"/>
      <path id="Path_75" data-name="Path 75" d="M246.642,169.307a1.254,1.254,0,0,1-.511,1.719,1.285,1.285,0,0,1-1.719-.527,1.254,1.254,0,0,1,.527-1.7,1.239,1.239,0,0,1,1.7.511Z" transform="translate(-39.374 -28.253)" fill="#263238"/>
      <path id="Path_76" data-name="Path 76" d="M245.548,171.194a1.069,1.069,0,0,1-.387,0,1.3,1.3,0,0,1-.867-1.549,1.239,1.239,0,0,1,.635-.759,1.3,1.3,0,0,1,1.765.526h0a1.316,1.316,0,0,1-.542,1.765,1.394,1.394,0,0,1-.6.016Zm0-2.524a1.3,1.3,0,0,0-.573.139,1.223,1.223,0,0,0-.5,1.657,1.161,1.161,0,0,0,.712.589,1.254,1.254,0,0,0,.945-.093,1.223,1.223,0,0,0,.5-1.657h0a1.224,1.224,0,0,0-1.1-.635Z" transform="translate(-39.379 -28.236)" fill="#263238"/>
      <path id="Path_77" data-name="Path 77" d="M247.01,166.786l4.46-1.626,10.236,21.557-4.352,1.858Z" transform="translate(-37.868 -30.162)" fill="#e0e0e0"/>
      <path id="Path_78" data-name="Path 78" d="M180.19,160.71a13.938,13.938,0,0,1,.263,2.4c.17,1.7.4,3.9.681,6.566.635,5.683,1.549,13.256,2.447,21.681s1.688,16.121,2.029,21.681c.186,2.788.263,5.049.279,6.613a11.723,11.723,0,0,1-.077,2.416,14.211,14.211,0,0,1-.232-2.4c-.108-1.549-.279-3.81-.542-6.582-.5-5.544-1.316-13.21-2.261-21.681s-1.75-16.106-2.215-21.681c-.232-2.788-.356-5.049-.418-6.613a12.139,12.139,0,0,1,.046-2.4Z" transform="translate(-74.574 -32.603)" fill="#263238"/>
      <path id="Path_79" data-name="Path 79" d="M189.124,167.65a90.068,90.068,0,0,1-2.942,11.553,90.827,90.827,0,0,1-3.7,11.32,88.267,88.267,0,0,1,2.927-11.553A88.268,88.268,0,0,1,189.124,167.65Z" transform="translate(-73.271 -28.796)" fill="#263238"/>
      <path id="Path_80" data-name="Path 80" d="M209.732,192.1a4.893,4.893,0,0,1-1.038-2.044,14.82,14.82,0,0,1,.681-10.84,5.157,5.157,0,0,1,1.285-1.9,29.066,29.066,0,0,0-1.858,7.341,28.881,28.881,0,0,0,.929,7.449Z" transform="translate(-59.283 -23.496)" fill="#263238"/>
      <path id="Path_81" data-name="Path 81" d="M206.418,219.01l5.993.465-2.369,24.995-5.792-.65Z" transform="translate(-61.327 -0.618)" fill="#e0e0e0"/>
      <path id="Path_82" data-name="Path 82" d="M153.122,139.62,120.8,160.232a20.968,20.968,0,0,0-7.743,23.8l24.778,77.88L128.9,332.687l70.834-3L198,298.71l-6.009-55.5a109.953,109.953,0,0,0-7.6-29.95Z" transform="translate(-111.96 -44.174)" fill="#23b5d3"/>
      <path id="Path_83" data-name="Path 83" d="M117.531,181.23l32.32,67.644a20.008,20.008,0,0,0,13.442,10.84l89.7,21.247,2.292-26.11L186.817,229.16l-34.441-66.1a19.668,19.668,0,0,0-27.6-7.743h0a19.652,19.652,0,0,0-7.248,25.909Z" transform="translate(-110.129 -37.111)" fill="#23b5d3"/>
      <path id="Path_84" data-name="Path 84" d="M252.241,254.37a1.209,1.209,0,0,1-.372-.093l-1.053-.356-4.057-1.456-15.022-5.529-50.625-18.924h-.139v-.155l-5.962-11.8c-5.606-10.933-11.2-21.232-16.431-30.523-2.617-4.646-5.141-9.029-7.526-13.117l-3.469-5.916c-.558-.96-1.115-1.874-1.7-2.726a22.856,22.856,0,0,0-1.827-2.447,21.526,21.526,0,0,0-8.61-6.195,19.436,19.436,0,0,0-7.944-1.425,14.077,14.077,0,0,0-6.659,1.781,1.841,1.841,0,0,1,.372-.263,6.8,6.8,0,0,1,1.192-.666,14.186,14.186,0,0,1,5.079-1.161,19.668,19.668,0,0,1,8.115,1.3,22.021,22.021,0,0,1,8.889,6.3,23.228,23.228,0,0,1,1.889,2.478c.619.883,1.192,1.8,1.734,2.757l3.515,5.885q3.624,6.195,7.6,13.1c5.265,9.292,10.84,19.559,16.508,30.508,2.06,4.042,4.073,8.022,5.947,11.831l-.217-.2L232,246.534l14.929,5.745,4.011,1.549,1.038.418Z" transform="translate(-107.088 -36.628)" fill="#263238"/>
      <path id="Path_85" data-name="Path 85" d="M196.75,229.55a1.27,1.27,0,1,1-1.27-1.27,1.27,1.27,0,0,1,1.27,1.27Z" transform="translate(-66.835 4.467)" fill="#263238"/>
      <path id="Path_86" data-name="Path 86" d="M195.461,230.862a1.3,1.3,0,1,1,1.3-1.3,1.3,1.3,0,0,1-1.3,1.3Zm0-2.524a1.223,1.223,0,1,0,1.223,1.223,1.223,1.223,0,0,0-1.223-1.223Z" transform="translate(-66.863 4.456)" fill="#263238"/>
      <path id="Path_87" data-name="Path 87" d="M199.9,230.37a1.27,1.27,0,1,1-1.27-1.27,1.27,1.27,0,0,1,1.27,1.27Z" transform="translate(-65.107 4.917)" fill="#263238"/>
      <path id="Path_88" data-name="Path 88" d="M198.591,231.682a1.3,1.3,0,1,1,1.3-1.3A1.316,1.316,0,0,1,198.591,231.682Zm0-2.524a1.223,1.223,0,1,0,1.223,1.223,1.223,1.223,0,0,0-1.223-1.223Z" transform="translate(-65.146 4.906)" fill="#263238"/>
      <circle id="Ellipse_2" data-name="Ellipse 2" cx="1.27" cy="1.27" r="1.27" transform="translate(136.666 235.365)" fill="#263238"/>
      <path id="Path_89" data-name="Path 89" d="M201.461,232.552a1.3,1.3,0,1,1,1.3-1.3A1.316,1.316,0,0,1,201.461,232.552Zm0-2.524a1.223,1.223,0,1,0,1.223,1.223A1.223,1.223,0,0,0,201.461,230.027Z" transform="translate(-63.571 5.384)" fill="#263238"/>
      <path id="Path_90" data-name="Path 90" d="M249.971,266.211a1.347,1.347,0,0,1-.434,0l-1.254-.279-4.832-1.161L225.7,260.4c-14.975-3.67-35.618-8.874-58.569-14.185-2.865-.681-5.7-1.223-8.5-1.982a18.941,18.941,0,0,1-7.666-3.825,22.471,22.471,0,0,1-4.646-6.814l-3.376-7.062-11.661-24.515-7.743-16.539c-.867-1.92-1.549-3.422-2.06-4.507l-.527-1.192a2.2,2.2,0,0,1-.155-.4,3.734,3.734,0,0,1,.232.372c.139.248.341.681.588,1.146l2.215,4.46c1.9,3.934,4.646,9.524,7.991,16.415s7.325,15.238,11.754,24.422c1.1,2.292,2.246,4.646,3.391,7.046a22.254,22.254,0,0,0,4.537,6.566,18.057,18.057,0,0,0,7.356,3.639c2.741.743,5.606,1.285,8.471,1.967,22.935,5.327,43.578,10.608,58.523,14.418,7.418,1.951,13.442,3.515,17.685,4.646l4.785,1.316,1.239.356Z" transform="translate(-107.11 -22.36)" fill="#263238"/>
      <path id="Path_91" data-name="Path 91" d="M169.017,232.72a9.294,9.294,0,0,1-1.069.9c-.728.542-1.765,1.285-3.1,2.184a50.362,50.362,0,0,1-11.15,5.792,25.661,25.661,0,0,1-12.482,1.254,16.91,16.91,0,0,1-3.686-1.069,3.716,3.716,0,0,1-1.223-.666,40.4,40.4,0,0,0,4.987,1.161,27.085,27.085,0,0,0,12.141-1.44,60.537,60.537,0,0,0,11.1-5.513A37.493,37.493,0,0,1,169.017,232.72Z" transform="translate(-98.601 6.903)" fill="#263238"/>
      <path id="Path_92" data-name="Path 92" d="M173.258,238.52a2.276,2.276,0,0,1,.217.573,14.4,14.4,0,0,1,.418,1.734,19.481,19.481,0,0,1,0,6.582,20.271,20.271,0,0,1-4.026,8.858A19.869,19.869,0,0,1,148,262.462a20.132,20.132,0,0,1-8.037-5.5,19.421,19.421,0,0,1-3.469-5.591,16.332,16.332,0,0,1-.542-1.7c-.093-.387-.139-.6-.108-.6a23.539,23.539,0,0,0,4.538,7.511,19.977,19.977,0,0,0,7.867,5.172,19.358,19.358,0,0,0,21.03-5.869,19.977,19.977,0,0,0,4.042-8.5A23.571,23.571,0,0,0,173.258,238.52Z" transform="translate(-98.862 10.085)" fill="#263238"/>
      <path id="Path_93" data-name="Path 93" d="M140.8,109.746l.2,57.7a17.159,17.159,0,0,0,18.072,17.035h0a17.19,17.19,0,0,0,16.261-17.143v-8.425s14.681-1.425,15.688-15.966c.5-7.031.31-21.588,0-34.767a27.132,27.132,0,0,0-25.6-26.481H164.01C148.864,81.638,140.347,94.554,140.8,109.746Z" transform="translate(-96.149 -75.95)" fill="#b78876"/>
      <path id="Path_94" data-name="Path 94" d="M169.721,133.7a33.93,33.93,0,0,1-18.661-6.473s3.887,10.732,18.475,10.236Z" transform="translate(-90.509 -50.971)" fill="#aa6550"/>
      <path id="Path_95" data-name="Path 95" d="M172.376,105.018A2.091,2.091,0,0,1,170.239,107a1.982,1.982,0,0,1-2.029-2,2.091,2.091,0,0,1,2.122-1.982,2,2,0,0,1,2.044,2Z" transform="translate(-81.1 -64.254)" fill="#263238"/>
      <path id="Path_96" data-name="Path 96" d="M174.078,103.58c-.263.263-1.781-.991-4.011-1.115s-3.949.9-4.166.619.17-.6.914-1.084a5.792,5.792,0,0,1,3.36-.836,5.42,5.42,0,0,1,3.175,1.239C174.016,102.96,174.217,103.471,174.078,103.58Z" transform="translate(-82.399 -65.278)" fill="#263238"/>
      <path id="Path_97" data-name="Path 97" d="M158.33,104.908a2.075,2.075,0,0,1-2.122,1.982,1.982,1.982,0,0,1-2.029-2,2.075,2.075,0,0,1,2.122-1.982,1.982,1.982,0,0,1,2.029,2Z" transform="translate(-88.797 -64.314)" fill="#263238"/>
      <path id="Path_98" data-name="Path 98" d="M159.715,103.261c-.279.248-1.781-1.007-4.026-1.131s-3.934.914-4.166.619.186-.6.929-1.084a5.606,5.606,0,0,1,3.345-.821,5.513,5.513,0,0,1,3.19,1.223C159.638,102.641,159.839,103.137,159.715,103.261Z" transform="translate(-90.29 -65.454)" fill="#263238"/>
      <path id="Path_99" data-name="Path 99" d="M161.36,120.372a14.866,14.866,0,0,1,3.67-.449c.573,0,1.13-.108,1.239-.5a2.927,2.927,0,0,0-.279-1.7c-.465-1.425-.945-2.9-1.44-4.46-2-6.318-3.407-11.506-3.1-11.584s2.075,4.987,4.073,11.3c.465,1.549.929,3.1,1.363,4.476a3.268,3.268,0,0,1,.17,2.261,1.44,1.44,0,0,1-.991.774,3.733,3.733,0,0,1-.976,0,14.512,14.512,0,0,1-3.732-.124Z" transform="translate(-84.858 -64.989)" fill="#263238"/>
      <path id="Path_100" data-name="Path 100" d="M161.006,100.086c-.263.6-2.478.186-5.11.356s-4.816.759-5.126.186c-.139-.263.263-.821,1.146-1.363a8.44,8.44,0,0,1,3.856-1.1,8.564,8.564,0,0,1,3.949.7C160.665,99.3,161.114,99.807,161.006,100.086Z" transform="translate(-90.683 -66.925)" fill="#263238"/>
      <path id="Path_101" data-name="Path 101" d="M173.69,100.182c-.418.48-1.936-.139-3.779-.263s-3.438.139-3.779-.4c-.139-.263.139-.759.852-1.208a5.513,5.513,0,0,1,6.086.542C173.69,99.407,173.937,99.934,173.69,100.182Z" transform="translate(-82.259 -67.207)" fill="#263238"/>
      <path id="Path_102" data-name="Path 102" d="M144.733,107.044c-.248-.124-9.834-3.531-10.082,6.442s9.8,8.161,9.834,7.882S144.733,107.044,144.733,107.044Z" transform="translate(-99.513 -62.408)" fill="#b78876"/>
      <path id="Path_103" data-name="Path 103" d="M140.637,116.376a4.69,4.69,0,0,1-.465.248,1.7,1.7,0,0,1-1.3,0,4.29,4.29,0,0,1-1.889-3.9,5.761,5.761,0,0,1,.542-2.478,2.044,2.044,0,0,1,1.347-1.3.867.867,0,0,1,1.007.511c.124.279,0,.48.108.5s.217-.17.155-.573a1.177,1.177,0,0,0-.387-.635,1.285,1.285,0,0,0-.945-.279,2.447,2.447,0,0,0-1.858,1.549,5.854,5.854,0,0,0-.666,2.757,4.491,4.491,0,0,0,2.431,4.367,1.9,1.9,0,0,0,1.549-.217C140.622,116.608,140.683,116.392,140.637,116.376Z" transform="translate(-98.623 -61.271)" fill="#aa6550"/>
      <path id="Path_104" data-name="Path 104" d="M137.929,120.684a5.25,5.25,0,0,1,4.646,2.726c.557,1.456.619,3.1,1.177,4.537a3.531,3.531,0,0,0,3.484,2.555,3.1,3.1,0,0,0,2.215-2.153,8.58,8.58,0,0,0,.2-3.206c-.31-4.646-1.038-9.292-.945-14.046a23.942,23.942,0,0,1,3.779-13.349A13.1,13.1,0,0,1,164.5,91.864c3.1.434,5.823,2.2,8.858,2.8a12.2,12.2,0,0,0,10.3-2.788,3.518,3.518,0,0,1,.5-.356,2.679,2.679,0,0,0,1.131-3.1,2.633,2.633,0,0,0-.527-.991c-5.776-5.978-16.679-8.177-24.778-6.613a29.13,29.13,0,0,0-19.931,14.17c-3.887,7.356-3.469,17.9-1.982,25.645" transform="translate(-98.222 -76.699)" fill="#263238"/>
      <path id="Path_105" data-name="Path 105" d="M158.145,114.88c.372,0,.372,2.4,2.447,4.119s4.646,1.456,4.646,1.8-.573.48-1.673.5a5.962,5.962,0,0,1-3.9-1.347,5.265,5.265,0,0,1-1.889-3.453C157.634,115.469,157.913,114.865,158.145,114.88Z" transform="translate(-86.846 -57.747)" fill="#263238"/>
      <path id="Path_106" data-name="Path 106" d="M247.81,171.69s10.918-9.586,12.977-10.3,18.506-1.007,19.606-.186,17.747,9.942,14.991,11.351-14.294-5.2-14.294-5.2l-1.936.263S289.22,172.991,291,175.05s.077,4.2-1.8,3.314-10.515-5.854-11.2-5.668,9.2,5.962,10.113,7.046c1.223,1.425.434,4.212-1.471,3.407-1.115-.465-10.221-6.5-10.221-6.5a91.105,91.105,0,0,1,7.371,6.737c.805,1.549-.743,2.958-2.338,1.982-1.084-.666-5.776-5.281-7.232-6.195,0,0-1.549-.124-3.98,2.416s-11.739,5.993-11.739,5.993Z" transform="translate(-37.429 -32.603)" fill="#b78876"/>
      <path id="Path_107" data-name="Path 107" d="M286.559,170.439a8.765,8.765,0,0,1-3.531-.217,20.565,20.565,0,0,1-3.7-1.115c-1.285-.619-2.695-1.332-4.181-2.091l-3.1-1.549h.217a53.084,53.084,0,0,1-8.455-.232,48.952,48.952,0,0,1,8.44-.6h.2l3.1,1.549,4.042,2.122a24.3,24.3,0,0,0,3.515,1.239C285.228,170.161,286.575,170.3,286.559,170.439Z" transform="translate(-28.651 -30.455)" fill="#aa6550"/>
      <path id="Path_108" data-name="Path 108" d="M250.43,172.273a3.7,3.7,0,0,0,4.1,1.409c1.549-.325,2.9-1.146,4.383-1.549,4.476-1.285,9.447,1.1,13.845-.4.619-.217,1.3-.666,1.239-1.3s-.743-.9-1.316-1.084L258,164.7" transform="translate(-35.992 -30.414)" fill="#b78876"/>
      <path id="Path_109" data-name="Path 109" d="M258.021,164.66a5.776,5.776,0,0,1,1.641.341c1.038.279,2.524.712,4.367,1.254l6.442,1.951,1.858.573c.588.232,1.44.279,2,1.192a1.285,1.285,0,0,1-.232,1.425,2.664,2.664,0,0,1-1.053.7,9.9,9.9,0,0,1-2.23.5,59.542,59.542,0,0,1-8.285-.449,11.8,11.8,0,0,0-3.453.325c-1.038.279-2,.743-2.911,1.069a5.42,5.42,0,0,1-4.646,0c-.991-.573-1.146-1.285-1.115-1.27a4.647,4.647,0,0,0,1.27.976,5.281,5.281,0,0,0,4.305-.31,31.209,31.209,0,0,1,2.942-1.192,11.861,11.861,0,0,1,3.686-.434,69.32,69.32,0,0,0,8.161.387,10.162,10.162,0,0,0,2-.449c.6-.217,1.022-.65.836-.929a3.1,3.1,0,0,0-1.549-.759l-1.858-.6-6.38-2.137c-1.812-.619-3.283-1.13-4.29-1.549A5.884,5.884,0,0,1,258.021,164.66Z" transform="translate(-36.009 -30.436)" fill="#aa6550"/>
      <path id="Path_110" data-name="Path 110" d="M209.947,220.036l18.1-1.8s23.942,16.4,21.681,20.008-6.195,0-6.195,0,4.259,5.25-2.633,6.891c0,0-1.642,3.608-4.259,3.283H235s-1.549,4.568-3.7,3.577-8.889-6.876-8.889-6.876l-18.583-1.642Z" transform="translate(-61.558 -1.041)" fill="#b78876"/>
      <path id="Path_111" data-name="Path 111" d="M217.3,231.547s-4.646,1.781-5.591,3.655-1.549,6.194,1.456,7.046a27.44,27.44,0,0,0,5.281-.17L217.3,237.2a34.507,34.507,0,0,1,2.757-2.849C221.051,233.53,219.967,230.324,217.3,231.547Z" transform="translate(-57.656 6.109)" fill="#ffbe9d"/>
      <path id="Path_112" data-name="Path 112" d="M220.553,233.148s-4.646,1.781-5.591,3.639a4.088,4.088,0,0,0,2.664,5.792,21.461,21.461,0,0,0,4.785-.155l-.5-.945c-.929-1.827-1.332-3.314.31-4.537a10.806,10.806,0,0,0,1.084-.991,2.029,2.029,0,0,0-2.757-2.8Z" transform="translate(-55.686 6.987)" fill="#ffbe9d"/>
      <path id="Path_113" data-name="Path 113" d="M219.4,240.819a2.726,2.726,0,0,1-.372-3.19,4.413,4.413,0,0,1,2.726-1.982,2.029,2.029,0,0,1,2.122.341,1.827,1.827,0,0,1,.294,1.394,7.356,7.356,0,0,1-1.889,3.391c-.434.542-.96,1.13-1.657,1.115s-1.208-.666-1.549-1.254" transform="translate(-53.415 8.421)" fill="#ffbe9d"/>
      <path id="Path_114" data-name="Path 114" d="M156.9,145.213l4.073-1.533,3.515,6.3-1.967,6.737-4.15,1.022-4.135-5.219Z" transform="translate(-88.764 -41.946)" fill="#ff725e"/>
      <path id="Path_115" data-name="Path 115" d="M156.91,153.122s5.281,28.975,9.663,49.355c0,0,3.608,17.035,5.064,20.875,1.626,4.383,6.644,10.84,6.644,10.84l5.095,1.982-3.1-28.634-19.2-55.441Z" transform="translate(-87.299 -37.327)" fill="#ff725e"/>
      <g id="Group_40" data-name="Group 40" transform="translate(65.476 101.734)" opacity="0.4">
        <path id="Path_116" data-name="Path 116" d="M156.9,145.213l4.073-1.533,3.515,6.3-1.967,6.737-4.15,1.022-4.135-5.219Z" transform="translate(-154.24 -143.68)"/>
      </g>
      <g id="Group_41" data-name="Group 41" transform="translate(69.611 114.773)" opacity="0.4">
        <path id="Path_117" data-name="Path 117" d="M156.91,153.122s5.281,28.975,9.663,49.355c0,0,4.135,16.818,5.064,20.875.542,2.4,6.644,10.84,6.644,10.84l5.095,1.982-3.1-28.634-19.2-55.441Z" transform="translate(-156.91 -152.1)"/>
      </g>
      <path id="Path_118" data-name="Path 118" d="M141.272,133.3l24.437,17.608-5.281,14.526L138.19,142.545Z" transform="translate(-97.569 -47.641)" fill="#f5f5f5"/>
      <path id="Path_119" data-name="Path 119" d="M158.59,149.078,165.4,133.84l3.872,12.575L163.9,159.609Z" transform="translate(-86.377 -47.345)" fill="#f5f5f5"/>
      <path id="Path_120" data-name="Path 120" d="M165.563,148.055a4.645,4.645,0,0,1-.279,1.115l-.991,3.1c-.867,2.586-2.137,6.195-3.67,10.5l-.2.588-.434-.465L154.3,156.6c-4.429-4.909-8.409-9.385-11.243-12.652l-3.345-3.9a8.841,8.841,0,0,1-1.146-1.549,9.291,9.291,0,0,1,1.378,1.3l3.531,3.717c2.958,3.1,7,7.588,11.413,12.5,2,2.23,3.9,4.367,5.668,6.318l-.635.124c1.549-4.243,2.942-7.852,3.934-10.407l1.192-2.958a4.058,4.058,0,0,1,.511-1.038Z" transform="translate(-97.361 -44.788)" fill="#263238"/>
      <path id="Path_121" data-name="Path 121" d="M169.254,142a18.351,18.351,0,0,1-1.146,3.562c-.79,2.153-1.951,5.126-3.283,8.378l-.573,1.409-.4.976-.341-.991a67.364,67.364,0,0,0-4.878-10,10.1,10.1,0,0,1,2.044,2.54,33.651,33.651,0,0,1,3.593,7.2h-.759c.186-.465.387-.929.573-1.409,1.332-3.268,2.571-6.194,3.5-8.3a16.151,16.151,0,0,1,1.673-3.36Z" transform="translate(-86.356 -42.868)" fill="#263238"/>
      <path id="Path_122" data-name="Path 122" d="M375.387,438.07l9.416,37.384,15.982,27.426a3.949,3.949,0,0,1-1.657,5.529h0a3.9,3.9,0,0,1-3.608,0c-7.186-3.872-33.512-18.258-34.07-21.03-.619-3.206-12.559-38.716-12.559-38.716Z" transform="translate(18.026 119.563)" fill="#071013"/>
      <g id="Group_42" data-name="Group 42" transform="translate(378.871 604.386)" opacity="0.6">
        <path id="Path_123" data-name="Path 123" d="M394.954,491.846,356.61,468.26l.434,1.549a5.946,5.946,0,0,0,2.385,3.345c3.1,2.122,11.893,7.743,31.793,18.583a3.98,3.98,0,0,0,3.732,0Z" transform="translate(-356.61 -468.26)" fill="#fff"/>
      </g>
      <g id="Group_43" data-name="Group 43" transform="translate(380.209 590.194)" opacity="0.6">
        <path id="Path_124" data-name="Path 124" d="M360.441,459.2a2.385,2.385,0,0,1,1.471,2.834,2.292,2.292,0,0,1-2.8,1.471,2.509,2.509,0,0,1-1.549-3,2.369,2.369,0,0,1,3.1-1.208" transform="translate(-357.474 -459.095)" fill="#fff"/>
      </g>
      <path id="Path_125" data-name="Path 125" d="M373.045,476.634a11.942,11.942,0,0,1,2.447-3.794,12.387,12.387,0,0,1,4.057-2c0-.093-.542-.248-1.44-.139a6.349,6.349,0,0,0-5.049,4.476C372.828,476.077,372.921,476.634,373.045,476.634Z" transform="translate(31.208 137.446)" fill="#263238"/>
      <path id="Path_126" data-name="Path 126" d="M375.595,478.733c.232.124,1.084-1.425,2.849-2.509a35.4,35.4,0,0,1,3.5-1.471,4.383,4.383,0,0,0-3.949.759C376,476.782,375.378,478.687,375.595,478.733Z" transform="translate(32.654 139.591)" fill="#263238"/>
      <path id="Path_127" data-name="Path 127" d="M368.67,473.749a20.225,20.225,0,0,1,9.292-6.969A10.841,10.841,0,0,0,368.67,473.749Z" transform="translate(28.878 135.314)" fill="#263238"/>
      <path id="Path_128" data-name="Path 128" d="M366.2,465.326c.17.186,1.982-1.239,4.646-2.06s4.94-.79,4.956-1.038a7.572,7.572,0,0,0-5.219.217A7.743,7.743,0,0,0,366.2,465.326Z" transform="translate(27.523 132.618)" fill="#263238"/>
      <path id="Path_129" data-name="Path 129" d="M364.244,458.246A18.585,18.585,0,0,1,369,455.969a19.3,19.3,0,0,1,5.265-.139c0-.093-.5-.434-1.549-.7a8.549,8.549,0,0,0-3.98,0,8.44,8.44,0,0,0-3.546,1.8C364.476,457.611,364.167,458.153,364.244,458.246Z" transform="translate(26.443 128.796)" fill="#263238"/>
      <path id="Path_130" data-name="Path 130" d="M369.285,456.85a3.3,3.3,0,0,0-.325-1.425,10.206,10.206,0,0,0-2.137-3.376,4.553,4.553,0,0,0-2.431-1.549,1.548,1.548,0,0,0-1.626.821,2.493,2.493,0,0,0-.124,1.827,5.575,5.575,0,0,0,6.086,3.686,6.5,6.5,0,0,0,5.234-4.971,2.276,2.276,0,0,0-.4-1.827,1.549,1.549,0,0,0-1.781-.356,5.513,5.513,0,0,0-2.106,1.951,11.227,11.227,0,0,0-1.734,3.593,3.484,3.484,0,0,0-.217,1.44,17.874,17.874,0,0,1,2.431-4.646,5.2,5.2,0,0,1,1.874-1.657.836.836,0,0,1,.976.2,1.549,1.549,0,0,1,.186,1.208,5.792,5.792,0,0,1-4.646,4.259,4.847,4.847,0,0,1-5.219-3.1,1.9,1.9,0,0,1,0-1.285.852.852,0,0,1,.9-.465,4.1,4.1,0,0,1,2.075,1.27,14.914,14.914,0,0,1,2.989,4.4Z" transform="translate(25.506 125.856)" fill="#263238"/>
      <path id="Path_131" data-name="Path 131" d="M300.116,442.927l2,28.82s-28.619,11.708-28.773,17.035l56.014-1.827L328.1,441.92Z" transform="translate(-23.423 121.676)" fill="#071013"/>
      <path id="Path_132" data-name="Path 132" d="M303.983,459.241a2.292,2.292,0,0,1,1.672,2.571,2.215,2.215,0,0,1-2.524,1.7,2.416,2.416,0,0,1-1.75-2.726,2.292,2.292,0,0,1,2.819-1.456" transform="translate(-8.056 131.177)" fill="#e0e0e0"/>
      <path id="Path_133" data-name="Path 133" d="M329.365,472.608l-.294-4.537-53.6,3.484s-2.462,1.177-2.122,2.927Z" transform="translate(-23.434 136.022)" fill="#e0e0e0"/>
      <path id="Path_134" data-name="Path 134" d="M291.331,461.1c0,.263,1.394.356,2.757,1.177s2.137,1.967,2.385,1.858-.217-1.688-1.889-2.679S291.269,460.881,291.331,461.1Z" transform="translate(-13.554 132.046)" fill="#263238"/>
      <path id="Path_135" data-name="Path 135" d="M287.59,462.752c0,.279,1.146.7,2.106,1.827s1.285,2.338,1.549,2.323.4-1.549-.836-2.958S287.59,462.5,287.59,462.752Z" transform="translate(-15.605 133.04)" fill="#263238"/>
      <path id="Path_136" data-name="Path 136" d="M286.406,468.977c.263,0,.589-1.332-.155-2.8s-2.06-2.029-2.168-1.8.712,1.007,1.316,2.214S286.143,468.946,286.406,468.977Z" transform="translate(-17.534 133.969)" fill="#263238"/>
      <path id="Path_137" data-name="Path 137" d="M291.515,457.135c.124.232,1.363-.186,2.911-.124s2.772.5,2.9.263-1.053-1.177-2.88-1.223S291.36,456.918,291.515,457.135Z" transform="translate(-13.459 129.427)" fill="#263238"/>
      <path id="Path_138" data-name="Path 138" d="M291.32,454.684a5.5,5.5,0,0,0,2.8-.108,12.715,12.715,0,0,0,2.9-1.007,11.85,11.85,0,0,0,1.549-.914,3.1,3.1,0,0,0,.836-.681,1.193,1.193,0,0,0,.077-1.456,1.549,1.549,0,0,0-1.223-.589,3.469,3.469,0,0,0-1.053.186,9.415,9.415,0,0,0-1.719.65,9.773,9.773,0,0,0-2.524,1.781c-1.27,1.254-1.672,2.292-1.549,2.338s.728-.79,2.013-1.827a11.387,11.387,0,0,1,2.462-1.549,9.648,9.648,0,0,1,1.549-.542c.588-.17,1.084-.2,1.254,0s0,.139,0,.31a2.727,2.727,0,0,1-.62.511,14.811,14.811,0,0,1-1.456.9,17.231,17.231,0,0,1-2.664,1.13A16.839,16.839,0,0,0,291.32,454.684Z" transform="translate(-13.558 126.07)" fill="#263238"/>
      <path id="Path_139" data-name="Path 139" d="M292.936,456.368a4.416,4.416,0,0,0,.65-2.726,9.291,9.291,0,0,0-.48-3.1,8.533,8.533,0,0,0-.774-1.673,2.338,2.338,0,0,0-1.827-1.363,1.316,1.316,0,0,0-1.146.821,3.657,3.657,0,0,0-.263,1.038,6.353,6.353,0,0,0,0,1.889,6.472,6.472,0,0,0,1.3,2.865c1.146,1.409,2.292,1.7,2.307,1.549a14.972,14.972,0,0,1-1.765-2.013,6.38,6.38,0,0,1-.976-2.6,5.716,5.716,0,0,1,0-1.626c0-.589.279-1.084.5-1.022a2.138,2.138,0,0,1,1.022.883,11.079,11.079,0,0,1,.743,1.549,9.88,9.88,0,0,1,.635,2.788C293.044,455.3,292.8,456.337,292.936,456.368Z" transform="translate(-14.818 124.742)" fill="#263238"/>
      <path id="Path_140" data-name="Path 140" d="M280.76,240.14l9.013,335.37,44.2-1.332-3.407-287.827,56.308,295.834,39.908-10.422L375.257,240.79Z" transform="translate(-19.352 10.974)" fill="#263238"/>
      <path id="Path_141" data-name="Path 141" d="M296.543,567.01c-.232,0-.4-69.518-.4-155.265s.17-155.265.4-155.265.4,69.5.4,155.265S296.759,567.01,296.543,567.01Z" transform="translate(-10.914 19.939)" fill="#455a64"/>
      <path id="Path_142" data-name="Path 142" d="M373.469,566.452c-.217,0-10.531-66.591-23.044-148.838S327.909,268.651,328.172,268.62s10.531,66.591,23.044,148.869S373.7,566.421,373.469,566.452Z" transform="translate(6.657 26.599)" fill="#455a64"/>
      <path id="Path_143" data-name="Path 143" d="M343.227,119.386a67.565,67.565,0,0,0,3.732-10.67c.527-2.788,1.363-6.953.248-9.555s-3.825-5.11-7.232-4.4a16.214,16.214,0,0,0-9.369-12.683,41.039,41.039,0,0,0-15.486-4.026,13.086,13.086,0,0,0-5.807.728,7.449,7.449,0,0,0-3.5,3.763,12.838,12.838,0,0,0-11.382-1.812c-4.274,1.146-9.137,3.453-11.011,7.449a12.529,12.529,0,0,0-.325,9.462c.821,2.6,3.577,6.69,6.195,5.73" transform="translate(-18.496 -77.987)" fill="#263238"/>
      <path id="Path_144" data-name="Path 144" d="M319.584,186.4h0a19.125,19.125,0,0,1-18.707-20.132c.263-5.343.511-9.663.511-9.663s-14.588-1.889-15.13-16.415S287.4,92.274,287.4,92.274h0a50.485,50.485,0,0,1,50.872,5.188l2.184,1.549-1.347,68.62A19.141,19.141,0,0,1,319.584,186.4Z" transform="translate(-16.394 -72.664)" fill="#ffbe9d"/>
      <path id="Path_145" data-name="Path 145" d="M296.071,134.164a33.853,33.853,0,0,0,18.8-5.854s-4.476,11.259-19,10.314Z" transform="translate(-11.062 -50.379)" fill="#eb996e"/>
      <path id="Path_146" data-name="Path 146" d="M320.382,104.941c.248-.108,9.911-3.206,9.834,6.737S320.2,119.5,320.18,119.2,320.382,104.941,320.382,104.941Z" transform="translate(2.275 -63.496)" fill="#ffbe9d"/>
      <path id="Path_147" data-name="Path 147" d="M322.153,114.33a4.762,4.762,0,0,0,.465.263,1.673,1.673,0,0,0,1.3,0,4.259,4.259,0,0,0,2.013-3.825,5.574,5.574,0,0,0-.48-2.478,1.967,1.967,0,0,0-1.285-1.332.867.867,0,0,0-1.022.465c-.139.279-.077.465-.124.48s-.217-.155-.139-.573a1.131,1.131,0,0,1,.4-.619,1.378,1.378,0,0,1,.96-.248,2.478,2.478,0,0,1,1.8,1.549,5.7,5.7,0,0,1,.573,2.772,4.507,4.507,0,0,1-2.555,4.274,1.9,1.9,0,0,1-1.549-.279C322.168,114.578,322.122,114.361,322.153,114.33Z" transform="translate(3.353 -62.369)" fill="#eb996e"/>
      <path id="Path_148" data-name="Path 148" d="M289.39,106a2.091,2.091,0,0,0,2.06,2.044,1.982,1.982,0,0,0,2.091-1.92,2.075,2.075,0,0,0-2.06-2.044A2,2,0,0,0,289.39,106Z" transform="translate(-14.617 -63.673)" fill="#263238"/>
      <path id="Path_149" data-name="Path 149" d="M289.068,104.627c.263.263,1.812-.929,4.042-.976s3.9,1.022,4.135.743-.155-.6-.883-1.115a5.73,5.73,0,0,0-3.314-.929,5.451,5.451,0,0,0-3.206,1.13C289.161,104.024,288.975,104.519,289.068,104.627Z" transform="translate(-14.806 -64.622)" fill="#263238"/>
      <path id="Path_150" data-name="Path 150" d="M303.51,106a2.091,2.091,0,0,0,2.06,2.029,1.967,1.967,0,0,0,2.091-1.92,2.075,2.075,0,0,0-2.044-2.044A2.013,2.013,0,0,0,303.51,106Z" transform="translate(-6.871 -63.684)" fill="#263238"/>
      <path id="Path_151" data-name="Path 151" d="M303.242,104.553c.279.263,1.812-.945,4.042-.991s3.9,1.022,4.135.743-.155-.6-.883-1.1a5.652,5.652,0,0,0-3.314-.945,5.451,5.451,0,0,0-3.206,1.131C303.335,103.934,303.118,104.429,303.242,104.553Z" transform="translate(-7.036 -64.671)" fill="#263238"/>
      <path id="Path_152" data-name="Path 152" d="M300.317,121.145a15.037,15.037,0,0,0-3.639-.558c-.573,0-1.115-.139-1.223-.527a3.1,3.1,0,0,1,.341-1.7c.511-1.394,1.038-2.849,1.549-4.383,2.184-6.195,3.748-11.351,3.5-11.444s-2.23,4.909-4.414,11.135l-1.549,4.414a3.3,3.3,0,0,0-.248,2.246,1.549,1.549,0,0,0,.96.805,3.9,3.9,0,0,0,.976.108A13.767,13.767,0,0,0,300.317,121.145Z" transform="translate(-11.792 -64.523)" fill="#263238"/>
      <path id="Path_153" data-name="Path 153" d="M305.014,115.45c-.372,0-.31,2.4-2.338,4.181s-4.646,1.549-4.646,1.9.588.449,1.688.449a5.978,5.978,0,0,0,3.856-1.456,5.25,5.25,0,0,0,1.812-3.5C305.463,116.023,305.185,115.419,305.014,115.45Z" transform="translate(-9.877 -57.434)" fill="#263238"/>
      <path id="Path_154" data-name="Path 154" d="M302.724,98.734c.232.6,2.462.263,5.079.511s4.77.9,5.1.356c.155-.263-.232-.836-1.1-1.394A8.425,8.425,0,0,0,308,96.984a8.579,8.579,0,0,0-3.964.558C303.157,97.96,302.631,98.44,302.724,98.734Z" transform="translate(-7.308 -67.587)" fill="#263238"/>
      <path id="Path_155" data-name="Path 155" d="M289.513,100.494c.4.5,1.92,0,3.779-.139s3.422.248,3.763-.279c.155-.263-.108-.774-.805-1.239a5.467,5.467,0,0,0-6.071.356C289.529,99.72,289.328,100.246,289.513,100.494Z" transform="translate(-14.586 -66.962)" fill="#263238"/>
      <path id="Path_156" data-name="Path 156" d="M342.506,101.424c-.093,4.243.976,8.936.325,13.1-.093.635-1.672,2.354-1.812,2.973-.759,3.7-2.246,5.312-4.522,1.549-.883-1.44-1.549-5.482-1.889-7.124L331.635,98.59a23.338,23.338,0,0,1-10.98,2.9,11.289,11.289,0,0,1-9.57-5.343,11.723,11.723,0,0,1-18.119,2.849,4.878,4.878,0,0,1-6.427,1.549,5.807,5.807,0,0,1-2.524-6.349c.914-3.562,4.646-5.575,8.161-6.706,13.705-4.414,29.068-1.549,41.658,5.358a21.061,21.061,0,0,1,5.11,3.655c1.456,1.549,3.469,3.283,3.577,5.389" transform="translate(-17.666 -73.932)" fill="#263238"/>
      <path id="Path_157" data-name="Path 157" d="M315,95.139a7.092,7.092,0,0,1,2.246.356,7.619,7.619,0,0,1,2.075,1.332c.712.619,1.409,1.425,2.261,2.215a7.433,7.433,0,0,0,2.819,1.781,5.049,5.049,0,0,0,2.757,0c1.549-.434,2.137-1.27,2.075-1.332a15.578,15.578,0,0,1-2.2.743,4.785,4.785,0,0,1-2.385-.2,7.015,7.015,0,0,1-2.493-1.642c-.805-.759-1.549-1.549-2.323-2.2a7.17,7.17,0,0,0-2.385-1.3A2.681,2.681,0,0,0,315,95.139Z" transform="translate(-0.57 -68.792)" fill="#455a64"/>
      <path id="Path_158" data-name="Path 158" d="M316.073,97.866c0,.124.743,0,1.549.7a8.857,8.857,0,0,1,1.27,1.44,6.474,6.474,0,0,0,1.889,1.75,6.8,6.8,0,0,0,4.522.96c1.192-.186,1.812-.619,1.765-.712s-.728.093-1.827.108a7.263,7.263,0,0,1-4.011-1.084c-1.425-.79-2.137-2.307-3.268-2.958S315.965,97.758,316.073,97.866Z" transform="translate(0.017 -67.183)" fill="#455a64"/>
      <path id="Path_159" data-name="Path 159" d="M293.364,79.571a2.578,2.578,0,0,0-1.285.124,5.482,5.482,0,0,0-2.788,2.106c-1.781,2.493-2.2,6.907-.821,11.2a15.811,15.811,0,0,0,7.124,8.75,13.8,13.8,0,0,0,3.175,1.347,3.314,3.314,0,0,0,1.254.217,43.952,43.952,0,0,1-4.088-2.091,16.043,16.043,0,0,1-6.613-8.5c-1.316-4.042-1.007-8.27.5-10.593A5.668,5.668,0,0,1,292.233,80C292.915,79.679,293.364,79.648,293.364,79.571Z" transform="translate(-15.571 -77.135)" fill="#455a64"/>
      <path id="Path_160" data-name="Path 160" d="M283.605,83.45a6.426,6.426,0,0,0,.124,2.8,17.36,17.36,0,0,0,7.356,11.057,6.473,6.473,0,0,0,2.54,1.208,28.542,28.542,0,0,1-6.613-6.473C284.116,87.771,283.884,83.4,283.605,83.45Z" transform="translate(-17.845 -74.99)" fill="#455a64"/>
      <path id="Path_161" data-name="Path 161" d="M241.083,214.14l-21.247,1.069a5.048,5.048,0,0,0-4.785,5.111c.108,4.863.929,11.506,4.646,10.84l2.416-10.577,17.639,15.486a12.807,12.807,0,0,0,6.349,3.1l4.15-.434Z" transform="translate(-55.402 -3.29)" fill="#ffbe9d"/>
      <path id="Path_162" data-name="Path 162" d="M303.357,142.027l-11.1,3.67-5.513,92.221v81.814l68.186,7.542.79-117.974-4.4-58.708L340.9,138.14Z" transform="translate(-16.071 -44.986)" fill="#e0e0e0"/>
      <path id="Path_163" data-name="Path 163" d="M295.26,148.663v-8.936l40.527-5.637-1.626,20.581-9.307,16.137-15.223.852-11-6.783Z" transform="translate(-11.397 -47.208)" fill="#e0e0e0"/>
      <path id="Path_164" data-name="Path 164" d="M297.729,145.716a10.485,10.485,0,0,1-.232-4.088,10.842,10.842,0,0,1,.573-4.057,10.483,10.483,0,0,1,.232,4.088,10.841,10.841,0,0,1-.573,4.057Z" transform="translate(-10.226 -45.298)" fill="#263238"/>
      <path id="Path_165" data-name="Path 165" d="M304.246,145.57a13.549,13.549,0,0,1-.139-4.568,13.057,13.057,0,0,1,.681-4.522,13.335,13.335,0,0,1,.124,4.646,12.761,12.761,0,0,1-.666,4.445Z" transform="translate(-6.615 -45.896)" fill="#263238"/>
      <path id="Path_166" data-name="Path 166" d="M310.551,145.091a14.743,14.743,0,0,1,0-4.832,14.558,14.558,0,0,1,.759-4.77,15.269,15.269,0,0,1,0,4.832,15.054,15.054,0,0,1-.759,4.77Z" transform="translate(-3.117 -46.44)" fill="#263238"/>
      <path id="Path_167" data-name="Path 167" d="M316.693,143.91a18.584,18.584,0,0,1,.418-9.09,16.929,16.929,0,0,1,0,4.553A17.315,17.315,0,0,1,316.693,143.91Z" transform="translate(0.156 -46.807)" fill="#263238"/>
      <path id="Path_168" data-name="Path 168" d="M321.007,165.86a5.854,5.854,0,0,1-.542,1.549c-.387.96-.991,2.323-1.781,4-1.549,3.33-3.918,7.867-6.8,12.7s-5.745,9.075-7.929,12.048c-1.084,1.549-1.982,2.679-2.633,3.484a6.427,6.427,0,0,1-1.084,1.192,54.785,54.785,0,0,1,3.252-5c2.06-3.1,4.832-7.31,7.743-12.126s5.281-9.292,6.984-12.559a57.291,57.291,0,0,1,2.788-5.281Z" transform="translate(-8.665 -29.778)" fill="#263238"/>
      <path id="Path_169" data-name="Path 169" d="M324,137.21l11,5.3,21.247,5.219a17.7,17.7,0,0,1,14.526,19.683l-11.135,86.723,13.287,84.09-52.653-1.549-3.1-31.282V218.668Z" transform="translate(0.623 -45.496)" fill="#455a64"/>
      <path id="Path_170" data-name="Path 170" d="M317.17,238.173a7.456,7.456,0,0,1,.155-1.084c.155-.774.356-1.781.6-3.1l2.338-11.181L328.3,186c.883-3.949,1.734-7.743,2.555-11.491l.108.372-3.655-3.825-.2-.217.155-.248,6.117-10.174v.294l-6.752-16.353c-.759-1.9-1.378-3.438-1.827-4.646a10.707,10.707,0,0,1-.589-1.642,8.425,8.425,0,0,1,.774,1.549L327,144.125l6.938,16.369.077.155-.093.155c-1.874,3.1-3.9,6.582-6.055,10.236v-.465l3.655,3.794.155.155v.2c-.821,3.7-1.672,7.542-2.54,11.491-3.221,14.325-6.194,27.287-8.27,36.764-1.069,4.646-1.951,8.409-2.586,11.135l-.743,3a5.388,5.388,0,0,1-.372,1.053Z" transform="translate(0.623 -45.024)" fill="#263238"/>
      <path id="Path_171" data-name="Path 171" d="M232.44,250.19l46.583-25.97,22.563-60.876a32.722,32.722,0,0,1,18.072-18.8l5.993-2.493V302.317l1.192,37.972L301.6,332.732l12.885-76.316-4.46-37.554-4.414,18.165a24.623,24.623,0,0,1-11.506,15.486l-48.41,25.15Z" transform="translate(-45.862 -42.841)" fill="#455a64"/>
      <path id="Path_172" data-name="Path 172" d="M234.188,212.64l-3.918,1.177,11.026,26.3,5.141-2Z" transform="translate(-47.052 -4.113)" fill="#e0e0e0"/>
      <path id="Path_173" data-name="Path 173" d="M271.061,205.777a33.911,33.911,0,0,0-3.484-5.9,34.576,34.576,0,0,0-5.157-4.507,13.039,13.039,0,0,1,8.641,10.407Z" transform="translate(-29.414 -13.588)" fill="#263238"/>
      <path id="Path_174" data-name="Path 174" d="M236.368,212.191a2.377,2.377,0,0,0-.263.759c-.031.449.263.976.883.79a.666.666,0,0,0,.31-1.13c-.263-.372-.6-.387-.619-.511s.434-.341,1.022.093a1.394,1.394,0,0,1,.527,1.131,1.363,1.363,0,0,1-1.007,1.192,1.316,1.316,0,0,1-1.673-1.688C235.811,212.129,236.291,212.037,236.368,212.191Z" transform="translate(-44.199 -4.501)" fill="#263238"/>
      <path id="Path_175" data-name="Path 175" d="M238.783,211.172a2.132,2.132,0,0,0-.248.759c-.016.449.263.976.883.79a.681.681,0,0,0,.31-1.146c-.263-.356-.6-.387-.635-.5s.434-.356,1.038.093a1.363,1.363,0,0,1,.527,1.115,1.425,1.425,0,0,1-2.524.743,1.409,1.409,0,0,1-.155-1.239C238.241,211.048,238.783,211.048,238.783,211.172Z" transform="translate(-42.866 -5.061)" fill="#263238"/>
      <path id="Path_176" data-name="Path 176" d="M295.17,238.474a4.23,4.23,0,0,1-.2-.976c-.108-.743-.263-1.688-.434-2.865-.356-2.586-.836-6.194-1.425-10.515-1.146-8.982-2.695-21.232-4.414-34.751-.232-1.92-.465-3.81-.7-5.683V183.5c1.177-2.989,2.323-5.885,3.407-8.657v.294c-1.177-2.679-2.307-5.25-3.361-7.743v-.232c2.075-7.449,3.81-13.721,5.049-18.243.619-2.137,1.115-3.841,1.471-5.11a11.825,11.825,0,0,1,.6-1.8,12.284,12.284,0,0,1-.387,1.843c-.31,1.285-.743,3.02-1.285,5.172-1.177,4.537-2.819,10.84-4.754,18.32v-.232l3.422,7.65v.294l-3.391,8.75v-.2c.232,1.858.465,3.763.712,5.683,1.549,13.535,3.1,25.785,4.166,34.767.5,4.383.9,7.96,1.177,10.562l.279,2.865a4.118,4.118,0,0,1,.062.991Z" transform="translate(-15.38 -42.863)" fill="#263238"/>
      <path id="Path_177" data-name="Path 177" d="M288.956,242.815a4.016,4.016,0,0,1-.155-.759c-.077-.589-.186-1.316-.31-2.184-.248-2.029-.573-4.754-.991-8.068-.821-6.814-1.982-16.214-3.376-26.59s-2.757-19.76-3.748-26.543c-.48-3.3-.883-6.024-1.177-8.037-.108-.883-.2-1.549-.279-2.2a2.462,2.462,0,0,1,0-.774,3.78,3.78,0,0,1,.2.743c.124.588.263,1.3.434,2.168.356,1.889.852,4.646,1.425,8.006,1.146,6.767,2.6,16.137,4,26.528s2.462,19.807,3.1,26.636c.341,3.407.588,6.194.743,8.084,0,.883.108,1.549.139,2.215A2.462,2.462,0,0,1,288.956,242.815Z" transform="translate(-20.378 -28.79)" fill="#263238"/>
      <path id="Path_178" data-name="Path 178" d="M281.244,263.385a6.461,6.461,0,0,0,1.069,1.3,4.956,4.956,0,0,0,4.259.96,7.186,7.186,0,0,0,4.646-4.537,28.061,28.061,0,0,0,1.3-8.332,19.048,19.048,0,0,0-.852-8.316,15.207,15.207,0,0,0-4.228-5.327,19.746,19.746,0,0,1-3.221-3.515,4.026,4.026,0,0,1-.759-1.549,16.978,16.978,0,0,0,1.007,1.394,24.388,24.388,0,0,0,3.361,3.283,14.975,14.975,0,0,1,4.522,5.467,18.908,18.908,0,0,1,.976,8.641,27.487,27.487,0,0,1-1.409,8.564,7.743,7.743,0,0,1-5.172,4.8,5.064,5.064,0,0,1-4.646-1.27,3.763,3.763,0,0,1-.759-1.084C281.244,263.509,281.213,263.385,281.244,263.385Z" transform="translate(-19.093 7.644)" fill="#263238"/>
      <path id="Path_179" data-name="Path 179" d="M270.06,221.014s1.549-17.763,15.61-19.4C285.67,201.61,285.933,216.152,270.06,221.014Z" transform="translate(-25.222 -10.164)" fill="#263238"/>
      <path id="Path_180" data-name="Path 180" d="M318.74,280.653,359.7,307.445l4.646-3.7,2.184-60.04-39.01-29.563-5.358,1.843Z" transform="translate(1.485 -3.29)" fill="#23b5d3"/>
      <path id="Path_181" data-name="Path 181" d="M326.605,214.69l1.6,64.98h-8.61l2.88-63.695Z" transform="translate(1.951 -2.988)" fill="#e0e0e0"/>
      <path id="Path_182" data-name="Path 182" d="M336.247,276.758a5.033,5.033,0,0,0,4.646,3.1.527.527,0,0,1,.341.294,4.646,4.646,0,0,0,3.887,2.416,8.3,8.3,0,0,0,4.4-1.27c2.137-1.3,5.947-9.849,5.947-9.849l9.029-20.132-15.177-4.1-19.3,6.009c0,.356-4.522,18.583-4.522,18.583a4.646,4.646,0,0,0,5.42-2.88,49.96,49.96,0,0,1,3.407-6.38l1.44,8.223-5.5,1.874a3.655,3.655,0,0,0,2.354,4.181Z" transform="translate(5.194 14.853)" fill="#ffbe9d"/>
      <path id="Path_183" data-name="Path 183" d="M336.84,189.165l25.289,46.552L341.548,296.81l22.873,12.9,29.1-67.985a19.343,19.343,0,0,0-.248-15.734L357.654,149.35Z" transform="translate(11.415 -38.836)" fill="#455a64"/>
      <path id="Path_184" data-name="Path 184" d="M340.637,244.57l-2.137,4.739,21.588,11.646,2.261-4.15Z" transform="translate(12.326 13.404)" fill="#e0e0e0"/>
      <path id="Path_185" data-name="Path 185" d="M344.138,297.419v-.31a5.091,5.091,0,0,1,.263-.9l1.1-3.453c1.007-3.1,2.431-7.418,4.2-12.838,3.655-10.964,8.75-26.234,14.573-43.718v.325c-2.942-5-5.978-10.283-9.028-15.734-5.575-9.958-10.686-19.559-15.068-28.433-2.168-4.445-4.181-8.688-5.885-12.761a25.443,25.443,0,0,1-2.106-12.064,27.69,27.69,0,0,1,2.246-9.865,19.327,19.327,0,0,1,4.476-6.194,14.7,14.7,0,0,1,4.026-2.664,9.07,9.07,0,0,1,1.549-.573,17.763,17.763,0,0,0-5.389,3.469,18.893,18.893,0,0,0-4.274,6.194,27.628,27.628,0,0,0-2.106,9.71,25.21,25.21,0,0,0,2.153,11.77c1.734,4.042,3.763,8.27,5.947,12.7,4.4,8.843,9.539,18.413,15.115,28.355,3.1,5.451,6.055,10.732,8.982,15.734l.093.155v.17c-5.947,17.453-11.119,32.691-14.851,43.625l-4.274,12.73c-.526,1.44-.929,2.571-1.223,3.407l-.341.883a2.032,2.032,0,0,1-.17.279Z" transform="translate(8.825 -39.445)" fill="#263238"/>
      <path id="Path_186" data-name="Path 186" d="M370.305,205.748a19.03,19.03,0,0,1-2.493-.883,17.825,17.825,0,0,0-12.281.387,18.3,18.3,0,0,1-2.431,1.038,5.885,5.885,0,0,1,2.2-1.549,15.27,15.27,0,0,1,6.318-1.549,15.115,15.115,0,0,1,6.4,1.177,5.916,5.916,0,0,1,2.292,1.378Z" transform="translate(20.336 -9.301)" fill="#263238"/>
      <path id="Path_187" data-name="Path 187" d="M333.57,167.91l18.165,60.8,2.571-19.993Z" transform="translate(9.621 -28.653)" fill="#263238"/>
      <path id="Path_188" data-name="Path 188" d="M353.329,245.14a2.132,2.132,0,0,0-.248.759c-.016.449.263.976.883.79a.681.681,0,0,0,.31-1.146c-.263-.356-.6-.387-.619-.5s.418-.341,1.022.093a1.363,1.363,0,0,1,.526,1.13,1.378,1.378,0,0,1-1.022,1.192,1.347,1.347,0,0,1-1.549-.465,1.378,1.378,0,0,1-.155-1.223C352.71,245.062,353.329,245.062,353.329,245.14Z" transform="translate(19.951 13.578)" fill="#263238"/>
      <path id="Path_189" data-name="Path 189" d="M354.443,242.311a2.134,2.134,0,0,0-.248.774.7.7,0,1,0,1.192-.356c-.263-.372-.619-.387-.635-.511s.434-.341,1.038.093a1.394,1.394,0,0,1,.527,1.131,1.378,1.378,0,1,1-2.679-.5C353.9,242.249,354.443,242.2,354.443,242.311Z" transform="translate(20.588 12.024)" fill="#263238"/>
      <path id="Path_190" data-name="Path 190" d="M371.433,192.21c-2.71,1.425-3.655,5.42-3.345,8.471s1.44,6.009,1.363,9.059a38.447,38.447,0,0,1-1.161,6.458,11.041,11.041,0,0,0,.186,6.458,4.956,4.956,0,0,0,5.126,3.237l2.153-4.336a23.9,23.9,0,0,0-.31-21.774Z" transform="translate(28.453 -15.322)" fill="#263238"/>
    </g>
    <g id="freepik--Plants--inject-44" transform="translate(71.723 452.836)">
      <path id="Path_191" data-name="Path 191" d="M457.1,415.669c1.394-4.816,4.383-9.493,8.982-11.475s10.36-.9,15.269.9,9.741,4.166,14.96,4.491,11.088-2.153,12.652-7.139c1.471-4.646-1.347-9.694-4.894-13.1A30.973,30.973,0,0,0,453.43,401.5" transform="translate(159.991 -266.97)" fill="#ff725e"/>
      <g id="Group_44" data-name="Group 44" transform="translate(613.421 113.785)" opacity="0.581">
        <path id="Path_192" data-name="Path 192" d="M457.1,415.669c1.394-4.816,4.383-9.493,8.982-11.475s10.36-.9,15.269.9,9.741,4.166,14.96,4.491,11.088-2.153,12.652-7.139c1.471-4.646-1.347-9.694-4.894-13.1A30.973,30.973,0,0,0,453.43,401.5" transform="translate(-453.43 -380.755)" opacity="0.996" fill="url(#linear-gradient)"/>
      </g>
      <path id="Path_193" data-name="Path 193" d="M431.282,438.062c-7.65-7.263-7.263-19.915-3.453-29.765s12.141-17.391,21.448-22.362a67.892,67.892,0,0,1,59.25-1.92,28.108,28.108,0,0,0-22.734,13.334c-4.181,6.969-5.126,15.486-8.579,22.765a35.851,35.851,0,0,1-45.9,17.949" transform="translate(144.492 -268.41)" fill="url(#linear-gradient)"/>
      <path id="Path_194" data-name="Path 194" d="M430.861,433.261c-8.471-10-9.586-26.048-8.347-39.1s4.274-26.172,2.215-39.118c-1.223-7.666-4.2-14.975-5.2-22.687s.418-16.4,6.4-21.371c6.845-5.714,17.654-4.367,24.778,1.007s11.274,13.783,14.294,22.176c6.628,18.46,9.059,38.917,3.608,57.748s-18.227,35.618-37,41.348" transform="translate(141.227 -307.28)" fill="url(#linear-gradient)"/>
      <path id="Path_195" data-name="Path 195" d="M424.129,474.089a6.58,6.58,0,0,1,0-1.146v-3.314c.108-2.865.387-7.015,1.022-12.11a163.936,163.936,0,0,1,3.252-17.732,82.079,82.079,0,0,1,8.1-20.535,85.935,85.935,0,0,1,13.225-17.685,84.767,84.767,0,0,1,13.86-11.522c2.122-1.471,4.166-2.571,5.931-3.608s3.376-1.719,4.646-2.354l3.1-1.27a5.567,5.567,0,0,1,1.069-.4,7.593,7.593,0,0,1-1.022.526l-2.989,1.394c-1.27.666-2.819,1.549-4.646,2.447a45.855,45.855,0,0,0-5.838,3.67,87.28,87.28,0,0,0-26.76,29.145c-7.743,13.628-9.911,27.953-11.46,37.988-.7,5.079-1.053,9.214-1.254,12.064l-.186,3.3A8.234,8.234,0,0,1,424.129,474.089Z" transform="translate(143.902 -266.062)" fill="#263238"/>
      <path id="Path_196" data-name="Path 196" d="M382.012,363.16c-15.672,9.462-15.626,18.057-13.008,26.187s12.234,13.767,20.132,10.732c4.506-1.719,7.743-5.637,10.562-9.586s5.4-8.146,9.292-10.98,9.57-3.9,13.5-1.1" transform="translate(112.955 -276.623)" fill="#ff725e"/>
      <g id="Group_45" data-name="Group 45" transform="translate(480.651 86.537)" opacity="0.668">
        <path id="Path_197" data-name="Path 197" d="M382.012,363.16c-15.672,9.462-15.626,18.057-13.008,26.187s12.234,13.767,20.132,10.732c4.506-1.719,7.743-5.637,10.562-9.586s5.4-8.146,9.292-10.98,9.57-3.9,13.5-1.1" transform="translate(-367.696 -363.16)" fill="url(#linear-gradient)"/>
      </g>
      <path id="Path_198" data-name="Path 198" d="M369.36,377.376c4.1-5.652,14.216-7.294,20.612-4.476s11.073,8.44,15.269,14.031,8.27,11.491,14.077,15.393,13.938,5.3,19.7,1.378a16.926,16.926,0,0,0,6.706-11.6,38.717,38.717,0,0,0-.929-13.659c-1.378-6.566-3.639-13.442-8.9-17.608-5.854-4.646-13.938-4.878-21.479-4.646-8.579.279-17.3.914-25.351,3.887s-16.276,9.416-19.7,17.283" transform="translate(113.868 -280.479)" fill="url(#linear-gradient)"/>
      <path id="Path_199" data-name="Path 199" d="M430.018,475.348a1.117,1.117,0,0,1,0-.356v-1.007c0-.945,0-2.245-.139-3.887-.108-3.438-.248-8.316-.418-14.309s-.434-13.225-.867-21.2-1.038-16.741-2.246-25.862a82.82,82.82,0,0,0-2.695-13.148,69.684,69.684,0,0,0-10.84-21.015,62.752,62.752,0,0,0-6.628-7.263,48.334,48.334,0,0,0-11.723-7.991c-.759-.356-1.44-.7-2.029-.945l-1.549-.589-.945-.387-.31-.139.341.077.96.31,1.549.542c.6.217,1.285.542,2.06.883a46.952,46.952,0,0,1,11.955,7.882,59.461,59.461,0,0,1,6.737,7.263,65.668,65.668,0,0,1,6.194,9.57,68.3,68.3,0,0,1,4.894,11.6,83.512,83.512,0,0,1,2.633,13.241c1.208,9.152,1.781,17.933,2.2,25.924s.588,15.176.712,21.216.17,10.933.186,14.309v4.909A1.537,1.537,0,0,1,430.018,475.348Z" transform="translate(124.989 -279.865)" fill="#263238"/>
      <path id="Path_200" data-name="Path 200" d="M420.329,499.372a44.015,44.015,0,0,1-1.719-6.737,70.5,70.5,0,0,1-.712-18.909A125.657,125.657,0,0,1,423.86,446.3c3.221-10.1,7.588-20.876,11.32-32.521a140.312,140.312,0,0,0,6.721-33.559,237.061,237.061,0,0,0,.5-28.03c-.263-7.975-.7-14.433-.96-18.893-.124-2.2-.232-3.918-.294-5.141v-1.332a1.746,1.746,0,0,1,0-.465,2.107,2.107,0,0,1,0,.449,5.2,5.2,0,0,0,.139,1.347c.108,1.208.248,2.927.434,5.126.341,4.445.852,10.84,1.177,18.893a231.894,231.894,0,0,1-.341,28.092,154.985,154.985,0,0,1-2.2,16.462,145.586,145.586,0,0,1-4.507,17.345c-3.748,11.63-8.13,22.409-11.367,32.444a127.563,127.563,0,0,0-6.086,27.287,73,73,0,0,0,.48,18.816c.387,2.2.743,3.9,1.053,5.033.124.542.232.976.31,1.3A1.684,1.684,0,0,1,420.329,499.372Z" transform="translate(140.315 -296.812)" fill="#263238"/>
      <path id="Path_201" data-name="Path 201" d="M471.109,447.67H397.518L395.83,433.5h75.279Z" transform="translate(128.39 -238.033)" fill="#455a64"/>
      <path id="Path_202" data-name="Path 202" d="M402.02,441.61l9.2,42.494H451.2l8.61-42.494Z" transform="translate(131.786 -233.583)" fill="#455a64"/>
      <path id="Path_203" data-name="Path 203" d="M470.044,442.815c0,.2-16.183.31-36.129.248s-36.145-.248-36.145-.449,16.183-.31,36.145-.248S470.044,442.629,470.044,442.815Z" transform="translate(129.455 -233.178)" fill="#455a64"/>
      <path id="Path_204" data-name="Path 204" d="M453.568,458.3a29.425,29.425,0,0,0-6.473-3.717,22.736,22.736,0,0,0-7.883-1.549,27.583,27.583,0,0,0-9.694,1.765c-3.345,1.146-6.489,2.462-9.54,3.19a23.089,23.089,0,0,1-8.239.248,17.313,17.313,0,0,1-5.3-1.672,11.608,11.608,0,0,1-1.27-.821c-.279-.2-.418-.325-.4-.341s.619.356,1.8.914a18.835,18.835,0,0,0,5.25,1.425,22.9,22.9,0,0,0,8.022-.387c2.942-.728,6.086-2.075,9.462-3.221a27.441,27.441,0,0,1,9.927-1.75,22.58,22.58,0,0,1,8.053,1.766,20.4,20.4,0,0,1,4.8,2.8,13.621,13.621,0,0,1,1.131.976C453.475,458.141,453.583,458.265,453.568,458.3Z" transform="translate(133.294 -227.675)" fill="#263238"/>
      <path id="Path_205" data-name="Path 205" d="M452.6,460.069a31.422,31.422,0,0,0-6.195-3.67,21.111,21.111,0,0,0-7.588-1.549,27.563,27.563,0,0,0-9.385,1.688c-3.237,1.084-6.272,2.339-9.183,3.1a23.572,23.572,0,0,1-7.929.883,13.319,13.319,0,0,1-5.188-1.394,9.014,9.014,0,0,1-1.239-.774c-.263-.2-.4-.325-.387-.341s.619.356,1.75.867a13.938,13.938,0,0,0,5.095,1.146A24.094,24.094,0,0,0,420.1,459c2.834-.79,5.854-2.06,9.137-3.1a27.442,27.442,0,0,1,9.617-1.672A20.768,20.768,0,0,1,446.6,456a21.111,21.111,0,0,1,4.646,2.772,14.481,14.481,0,0,1,1.084.96C452.558,459.96,452.62,460.069,452.6,460.069Z" transform="translate(133.701 -226.66)" fill="#fff"/>
      <path id="Path_206" data-name="Path 206" d="M454.575,456.678a33.512,33.512,0,0,0-6.644-3.933,24.592,24.592,0,0,0-8.084-1.936,26.328,26.328,0,0,0-10,1.765,88.831,88.831,0,0,1-9.865,3.221,25.288,25.288,0,0,1-8.517,0,19.061,19.061,0,0,1-5.467-1.734,9.588,9.588,0,0,1-1.332-.821c-.279-.217-.418-.341-.4-.356s.635.387,1.858.929a20.863,20.863,0,0,0,5.42,1.549,25.24,25.24,0,0,0,8.316-.155,97.382,97.382,0,0,0,9.772-3.252,26.093,26.093,0,0,1,10.267-1.75,24.777,24.777,0,0,1,13.148,5.095,14.259,14.259,0,0,1,1.177,1.022C454.467,456.523,454.606,456.663,454.575,456.678Z" transform="translate(133.015 -228.875)" fill="#fff"/>
      <path id="Path_207" data-name="Path 207" d="M471.057,442.811c0,.2-16.555.356-36.966.356s-36.981-.155-36.981-.356,16.555-.341,36.981-.341S471.057,442.625,471.057,442.811Z" transform="translate(129.092 -233.111)" fill="#263238"/>
      <path id="Path_208" data-name="Path 208" d="M82.592,446.146c2.648,3.779,7.743,2.524,10.19.217s3.391-5.637,4.305-8.827c2.091-7.294,4.212-14.944,2.648-22.362a12.389,12.389,0,0,0-2.849-6.071,6.489,6.489,0,0,0-6.1-2.06c-2.6.681-4.212,3.221-5.374,5.637a53.381,53.381,0,0,0-5.265,22.873,18.46,18.46,0,0,0,2.493,10.577" transform="translate(-44.825 -252.614)" fill="#ff725e"/>
      <g id="Group_46" data-name="Group 46" transform="translate(35.278 154.307)" opacity="0.699">
        <path id="Path_209" data-name="Path 209" d="M82.592,446.146c2.648,3.779,7.743,2.524,10.19.217s3.391-5.637,4.305-8.827c2.091-7.294,4.212-14.944,2.648-22.362a12.389,12.389,0,0,0-2.849-6.071,6.489,6.489,0,0,0-6.1-2.06c-2.6.681-4.212,3.221-5.374,5.637a53.381,53.381,0,0,0-5.265,22.873,18.46,18.46,0,0,0,2.493,10.577" transform="translate(-80.103 -406.922)" fill="url(#linear-gradient)"/>
      </g>
      <path id="Path_210" data-name="Path 210" d="M89.986,445.378a22.873,22.873,0,0,1,14.232-1.719,11.832,11.832,0,0,1,7.031,3.1c1.75,1.951,2.091,5.358,0,7.031a6.721,6.721,0,0,1-4.429,1.115c-3.763,0-7.929-.7-10.933,1.549-1.719,1.285-2.865,3.438-4.909,4.073a4.878,4.878,0,0,1-5.343-2.369,8.347,8.347,0,0,1-.588-6.117,9.292,9.292,0,0,1,4.94-6.659Z" transform="translate(-42.293 -232.706)" fill="url(#linear-gradient)"/>
      <path id="Path_211" data-name="Path 211" d="M87.8,447.25A13.705,13.705,0,0,0,89.932,434.6a24.252,24.252,0,0,0-7.5-10.84,40.265,40.265,0,0,0-13.427-7.929,14.2,14.2,0,0,0-6.04-1.022,6.349,6.349,0,0,0-5.064,3.1c-1.409,2.695,0,5.962,1.409,8.626a101.771,101.771,0,0,0,8.843,13.365c2.648,3.407,5.683,6.767,9.71,8.316s8.208,1.363,10.345-1.44" transform="translate(-57.323 -248.298)" fill="url(#linear-gradient)"/>
      <path id="Path_212" data-name="Path 212" d="M81.642,481.4a9.077,9.077,0,0,0,.232-1.719c.124-1.254.279-2.834.465-4.646a64.86,64.86,0,0,1,1.053-6.876,52.224,52.224,0,0,1,2.493-8.115A29.764,29.764,0,0,1,90,452.657a15.485,15.485,0,0,1,5.234-4.367,14.509,14.509,0,0,1,4.414-1.363,9.736,9.736,0,0,0,1.719-.248,6.967,6.967,0,0,0-1.75,0,13.471,13.471,0,0,0-4.646,1.192,15.486,15.486,0,0,0-5.529,4.4,29.2,29.2,0,0,0-4.29,7.5A48.686,48.686,0,0,0,82.679,468a56.948,56.948,0,0,0-.914,6.969c-.155,1.982-.217,3.608-.232,4.646a8.131,8.131,0,0,0,.108,1.781Z" transform="translate(-44.046 -230.832)" fill="#263238"/>
      <path id="Path_213" data-name="Path 213" d="M81.953,494.192a5.453,5.453,0,0,0,0-.805c0-.6,0-1.347,0-2.276,0-1.982,0-4.847.108-8.378.17-7.062.774-16.834,1.951-27.55s2.757-20.38,4.2-27.3c.325-1.75.666-3.3.991-4.646s.573-2.555.821-3.5l.527-2.214a2.556,2.556,0,0,0,.139-.79,3.968,3.968,0,0,0-.263.743c-.186.573-.4,1.3-.666,2.184s-.6,2.122-.945,3.484-.728,2.927-1.1,4.646a258.312,258.312,0,0,0-4.4,27.333c-1.177,10.748-1.7,20.535-1.765,27.628,0,3.531,0,6.411.124,8.378q.093,1.394.139,2.276a3.1,3.1,0,0,0,.139.79Z" transform="translate(-44.032 -247.233)" fill="#263238"/>
      <path id="Path_214" data-name="Path 214" d="M90.794,473.279a17.562,17.562,0,0,0,0-2.385c-.093-1.549-.31-3.748-.728-6.458a87.3,87.3,0,0,0-2.122-9.4,80.994,80.994,0,0,0-3.934-11.119,59.08,59.08,0,0,0-11.553-17.964,27.887,27.887,0,0,0-2.71-2.524c-.418-.356-.79-.712-1.161-.991l-1.053-.712a14.149,14.149,0,0,0-2.013-1.285,69.4,69.4,0,0,1,6.582,5.854,62.069,62.069,0,0,1,11.2,17.918,89.306,89.306,0,0,1,3.964,11.011c1.022,3.453,1.7,6.628,2.23,9.292s.774,4.863.945,6.38a15.491,15.491,0,0,0,.356,2.385Z" transform="translate(-52.826 -245.198)" fill="#263238"/>
    </g>
    <g id="freepik--speech-bubble--inject-44" transform="translate(293.183 54.912)">
      <path id="Path_215" data-name="Path 215" d="M245.18,50.455a3.794,3.794,0,0,1,.79,0h2.323a24.778,24.778,0,0,1,3.748.356c.743.124,1.549.2,2.385.372l2.679.666a43.361,43.361,0,0,1,12.885,5.761,44.8,44.8,0,0,1-7.712,78.7,43.718,43.718,0,0,1-14.929,3.283,42.711,42.711,0,0,1-15.61-1.936l-.465-.155h.356l-26.094,9.044-1.053.372.325-1.084,6.783-21.681.108.527A44.693,44.693,0,0,1,201.23,85.965a43.888,43.888,0,0,1,6.737-16.013A44.477,44.477,0,0,1,218.3,59.112,40.079,40.079,0,0,1,228.9,53.243a34.613,34.613,0,0,1,4.646-1.549,29.283,29.283,0,0,1,4.026-.836c1.223-.17,2.307-.356,3.237-.434l2.385-.077h1.533a1.549,1.549,0,0,1,.5,0,3.268,3.268,0,0,1-.5.077l-1.44.108-2.354.17c-.929.108-2,.31-3.206.511a29.1,29.1,0,0,0-3.964.914,33.819,33.819,0,0,0-4.646,1.549,51.1,51.1,0,0,0-5.095,2.4,46.07,46.07,0,0,0-5.3,3.515,44.725,44.725,0,0,0-10.066,10.7,43.176,43.176,0,0,0-6.5,15.811,43.764,43.764,0,0,0,10.376,37.74l.217.232-.093.294q-3.237,10.453-6.737,21.681l-.728-.7,26.063-8.812h.372l.449.139a41.89,41.89,0,0,0,15.207,1.889,42.99,42.99,0,0,0,14.557-3.175,43.954,43.954,0,0,0-4.863-82.929l-2.633-.712c-.836-.186-1.626-.279-2.354-.418a24.638,24.638,0,0,0-3.717-.465l-2.307-.186a5.171,5.171,0,0,1-.79-.232Z" transform="translate(-200.327 -50.327)" fill="#23b5d3"/>
      <path id="Path_216" data-name="Path 216" d="M212.35,88.277l6.86-6.876,13.241,11.77,26-25.01,6.365,6.876-33.342,31.375Z" transform="translate(-193.732 -40.544)" fill="#23b5d3"/>
    </g>
  </g>
</svg>
